<svg width="134" height="19" viewBox="0 0 134 19" fill="none" xmlns="http://www.w3.org/2000/svg">
<path d="M25.672 0.247078L20.7457 18.7034H15.7939L13.6404 10.1808C13.3519 9.01726 13.1145 7.75597 12.9292 6.39698C12.8959 6.15049 12.8604 5.90401 12.8249 5.65863C12.7927 5.88957 12.7639 6.12162 12.7372 6.35367C12.5797 7.69935 12.3489 8.97618 12.0438 10.1808L9.89022 18.7034H4.92625L0 0.247078H4.83971L6.65931 8.40993C6.84127 9.23599 7.00437 10.1298 7.14861 11.0913C7.29284 12.0539 7.43486 13.0154 7.57577 13.978C7.58797 14.0602 7.60018 14.1424 7.61127 14.2234C7.62459 14.1424 7.6379 14.0602 7.65011 13.978C7.79767 13.0154 7.95522 12.0539 8.12054 11.0913C8.28475 10.1298 8.46671 9.23599 8.6642 8.40993L10.6203 0.247078H15.0639L17.0066 8.40993C17.2053 9.23599 17.3861 10.1298 17.5514 11.0913C17.7167 12.0539 17.8754 13.0154 18.0285 13.978C18.0396 14.0469 18.0507 14.1157 18.0618 14.1834C18.0707 14.1157 18.0807 14.0469 18.0906 13.978C18.226 13.0154 18.3702 12.0539 18.5233 11.0913C18.6765 10.1298 18.8396 9.23599 19.0126 8.40993L20.8323 0.247078H25.672Z" fill="#1D2220"/>
<path d="M37.4051 0.247078H31.5513L25.399 18.7034H30.2509L31.4558 14.7763H37.5937L38.8408 18.7034H43.7426L37.4051 0.247078ZM32.4833 11.4321L32.7262 10.6394C33.1146 9.30149 33.4818 7.87588 33.828 6.36034C34.0255 5.49986 34.2263 4.6194 34.4305 3.71895C34.649 4.61274 34.8676 5.48987 35.0851 6.34812C35.4678 7.86256 35.8662 9.29372 36.2789 10.6394L36.5308 11.4321H32.4833Z" fill="#1D2220"/>
<path d="M52.8775 18.951C51.3427 18.951 50.0059 18.7197 48.8671 18.2574C47.7284 17.7949 46.8413 17.093 46.206 16.1516C45.5704 15.2103 45.2405 14.0295 45.2157 12.6092H49.4118C49.4529 13.2037 49.616 13.7035 49.9007 14.1079C50.1853 14.5126 50.5772 14.816 51.0765 15.0183C51.5757 15.2208 52.1596 15.3217 52.828 15.3217C53.4302 15.3217 53.9501 15.2393 54.3876 15.0741C54.8248 14.9089 55.1611 14.6777 55.3963 14.3804C55.6315 14.0832 55.7491 13.7363 55.7491 13.34C55.7491 12.985 55.6396 12.6835 55.4211 12.4357C55.2023 12.1881 54.8743 11.9694 54.437 11.7793C53.9996 11.5895 53.4426 11.4201 52.7661 11.2715L50.8104 10.8131C49.2177 10.4499 47.9676 9.8554 47.06 9.02957C46.1522 8.2039 45.6985 7.0973 45.6985 5.71003C45.6985 4.57052 46.0079 3.57148 46.6268 2.71257C47.2457 1.85383 48.0936 1.18711 49.1704 0.712206C50.2473 0.237457 51.4829 0 52.8775 0C54.3049 0 55.5427 0.241521 56.5908 0.724564C57.6386 1.20766 58.4514 1.88078 59.0292 2.74353C59.6066 3.6065 59.9037 4.60766 59.9203 5.74716H55.7243C55.6665 5.07833 55.3942 4.5581 54.9074 4.18651C54.4204 3.81493 53.7397 3.62915 52.8651 3.62915C52.2874 3.62915 51.8006 3.70559 51.4045 3.85826C51.0085 4.01119 50.7114 4.22176 50.5134 4.49C50.3153 4.75841 50.2163 5.06596 50.2163 5.41276C50.2163 5.79264 50.3277 6.11255 50.5505 6.37266C50.7733 6.63278 51.0909 6.84952 51.5036 7.02295C51.9161 7.19638 52.3948 7.34498 52.9393 7.46885L54.5361 7.84044C55.4272 8.03051 56.2214 8.28846 56.9187 8.61461C57.6159 8.94086 58.206 9.33103 58.6888 9.78513C59.1715 10.2393 59.5386 10.7637 59.7904 11.3582C60.042 11.9527 60.1679 12.6175 60.1679 13.3524C60.1679 14.5167 59.877 15.518 59.2953 16.356C58.7135 17.1943 57.8799 17.8361 56.7949 18.2821C55.7098 18.728 54.404 18.951 52.8775 18.951Z" fill="#1D2220"/>
<path d="M75.4415 11.7422C75.4415 10.5942 75.2784 9.5827 74.9533 8.70779C74.6271 7.83178 74.1644 7.09565 73.5664 6.4961C72.9684 5.89765 72.2627 5.44576 71.4495 5.14043C70.6373 4.8351 69.7441 4.68188 68.77 4.68188C67.3842 4.68188 66.1793 4.98166 65.1563 5.58011C64.1322 6.17855 63.3422 7.0146 62.7853 8.08825C62.2283 9.1619 61.9498 10.4088 61.9498 11.8288C61.9498 13.3066 62.2283 14.579 62.7853 15.6438C63.3422 16.7085 64.1455 17.529 65.1929 18.1031C66.2414 18.6771 67.4874 18.9635 68.9309 18.9635C70.0537 18.9635 71.0456 18.8026 71.9077 18.4806C72.7698 18.1586 73.4843 17.7023 74.0491 17.1116C74.6149 16.5209 75.0121 15.8292 75.244 15.0364L71.394 14.4047C71.2786 14.7111 71.1077 14.9709 70.8803 15.1852C70.6539 15.4006 70.381 15.5616 70.0637 15.6682C69.7464 15.7759 69.3935 15.8292 69.0052 15.8292C68.4438 15.8292 67.9534 15.7115 67.5329 15.4761C67.1113 15.2407 66.784 14.8866 66.5487 14.4114C66.3357 13.9817 66.2192 13.4554 66.1992 12.8325H75.4415V11.7422ZM66.2225 10.3177C66.2636 9.92245 66.3557 9.56494 66.4988 9.24628C66.7007 8.79662 66.9959 8.44577 67.3842 8.19373C67.7714 7.94169 68.2463 7.81512 68.8077 7.81512C69.368 7.81512 69.8385 7.93947 70.219 8.18707C70.5985 8.43466 70.8847 8.78996 71.0789 9.25295C71.2098 9.56605 71.2964 9.92134 71.3385 10.3177H66.2225Z" fill="#1D2220"/>
<path d="M82.0265 10.8005V18.703H77.7068V4.8551H81.7667L81.8533 8.34807H81.6677C82.0058 7.24993 82.536 6.36429 83.2582 5.69118C83.9801 5.01829 84.9518 4.68173 86.173 4.68173C87.1385 4.68173 87.9802 4.89652 88.6981 5.32578C89.416 5.75527 89.973 6.36218 90.369 7.14659C90.7652 7.93117 90.9632 8.84347 90.9632 9.88399V18.703H86.6434V10.7262C86.6434 9.95013 86.4454 9.34109 86.0493 8.89925C85.6533 8.45758 85.1002 8.23654 84.3908 8.23654C83.9285 8.23654 83.5181 8.33776 83.1591 8.54003C82.8002 8.74246 82.5217 9.03353 82.3236 9.41329C82.1256 9.79323 82.0265 10.2556 82.0265 10.8005Z" fill="#1D2220"/>
<path d="M98.8231 18.9018C97.7998 18.9018 96.8673 18.6355 96.0257 18.1029C95.184 17.5702 94.5157 16.7775 94.0205 15.7247C93.5255 14.6719 93.2779 13.3611 93.2779 11.792C93.2779 10.1737 93.5356 8.8379 94.0515 7.78507C94.567 6.73225 95.2438 5.9519 96.0813 5.44408C96.9188 4.93627 97.8205 4.68233 98.7859 4.68233C99.5202 4.68233 100.147 4.80833 100.667 5.06009C101.187 5.31207 101.614 5.63199 101.948 6.02004C102.283 6.40827 102.536 6.81275 102.71 7.23388H102.809V0.248055H107.116V18.7036H102.858V16.4617H102.71C102.528 16.8746 102.266 17.2668 101.924 17.6384C101.581 18.01 101.156 18.3135 100.649 18.5488C100.141 18.7841 99.5327 18.9018 98.8231 18.9018ZM100.296 15.5327C100.841 15.5327 101.309 15.3778 101.701 15.0683C102.093 14.7586 102.392 14.3232 102.598 13.7615C102.804 13.2001 102.908 12.5436 102.908 11.792C102.908 11.0241 102.804 10.3615 102.598 9.80403C102.392 9.24667 102.093 8.81741 101.701 8.51586C101.309 8.21454 100.841 8.06378 100.296 8.06378C99.7431 8.06378 99.2748 8.21861 98.8911 8.52822C98.5074 8.83789 98.2165 9.27143 98.0184 9.82886C97.8205 10.3862 97.7214 11.0407 97.7214 11.792C97.7214 12.5352 97.8205 13.1898 98.0184 13.7553C98.2165 14.321 98.5074 14.7586 98.8911 15.0683C99.2748 15.3778 99.7431 15.5327 100.296 15.5327Z" fill="#1D2220"/>
<path d="M122.934 11.7422C122.934 10.5942 122.771 9.5827 122.446 8.70779C122.12 7.83178 121.657 7.09565 121.059 6.4961C120.461 5.89765 119.756 5.44576 118.942 5.14043C118.13 4.8351 117.237 4.68188 116.263 4.68188C114.877 4.68188 113.672 4.98166 112.649 5.58011C111.625 6.17855 110.835 7.0146 110.278 8.08825C109.721 9.1619 109.443 10.4088 109.443 11.8288C109.443 13.3066 109.721 14.579 110.278 15.6438C110.835 16.7085 111.638 17.529 112.686 18.1031C113.734 18.6771 114.98 18.9635 116.424 18.9635C117.546 18.9635 118.538 18.8026 119.4 18.4806C120.263 18.1586 120.977 17.7023 121.542 17.1116C122.108 16.5209 122.505 15.8292 122.737 15.0364L118.887 14.4047C118.771 14.7111 118.6 14.9709 118.373 15.1852C118.147 15.4006 117.874 15.5616 117.556 15.6682C117.239 15.7759 116.886 15.8292 116.498 15.8292C115.937 15.8292 115.446 15.7115 115.026 15.4761C114.604 15.2407 114.277 14.8866 114.042 14.4114C113.828 13.9817 113.712 13.4554 113.692 12.8325H122.934V11.7422ZM113.715 10.3177C113.756 9.92245 113.848 9.56494 113.992 9.24628C114.194 8.79662 114.489 8.44577 114.877 8.19373C115.264 7.94169 115.739 7.81512 116.3 7.81512C116.861 7.81512 117.331 7.93947 117.712 8.18707C118.09 8.43466 118.377 8.78996 118.572 9.25295C118.703 9.56605 118.789 9.92134 118.831 10.3177H113.715Z" fill="#1D2220"/>
<path d="M125.2 18.703V4.85511H129.396V7.38194H129.544C129.792 6.46535 130.202 5.78622 130.776 5.34438C131.349 4.90276 132.015 4.68173 132.775 4.68173C132.973 4.68173 133.181 4.69408 133.4 4.71887C133.618 4.74364 133.818 4.78083 134 4.83038V8.59577C133.794 8.52145 133.524 8.46571 133.189 8.42857C132.855 8.39138 132.556 8.37279 132.292 8.37279C131.764 8.37279 131.289 8.4905 130.868 8.72583C130.448 8.96117 130.117 9.28532 129.878 9.69815C129.639 10.1111 129.519 10.5942 129.519 11.1474V18.703H125.2Z" fill="#1D2220"/>
</svg>
