<svg width="16" height="16" viewBox="0 0 16 16" fill="none" xmlns="http://www.w3.org/2000/svg">
<path fill-rule="evenodd" clip-rule="evenodd" d="M0.712726 7.75729C1.86873 4.79596 4.58939 2.66663 8.00006 2.66663C11.4107 2.66663 14.1314 4.79596 15.2881 7.75729C15.349 7.91332 15.349 8.08659 15.2881 8.24263C14.1314 11.204 11.4107 13.3333 8.00006 13.3333C4.58939 13.3333 1.86873 11.204 0.712726 8.24263C0.651748 8.08659 0.651748 7.91332 0.712726 7.75729ZM8.00006 9.99996C8.53049 9.99996 9.0392 9.78925 9.41427 9.41417C9.78935 9.0391 10.0001 8.53039 10.0001 7.99996C10.0001 7.46953 9.78935 6.96082 9.41427 6.58575C9.0392 6.21067 8.53049 5.99996 8.00006 5.99996C7.46963 5.99996 6.96092 6.21067 6.58585 6.58575C6.21077 6.96082 6.00006 7.46953 6.00006 7.99996C6.00006 8.53039 6.21077 9.0391 6.58585 9.41417C6.96092 9.78925 7.46963 9.99996 8.00006 9.99996Z" fill="#019F53"/>
</svg>
