<svg width="208" height="62" viewBox="0 0 208 62" fill="none" xmlns="http://www.w3.org/2000/svg">
<path d="M40.4489 16.9434L32.859 45.5502H25.2297L21.9117 32.3404C21.4672 30.5369 21.1014 28.5819 20.8159 26.4755C20.7646 26.0935 20.7099 25.7114 20.6552 25.3311C20.6057 25.6891 20.5612 26.0487 20.5202 26.4084C20.2774 28.4942 19.9219 30.4732 19.4518 32.3404L16.1337 45.5502H8.48569L0.895752 16.9434H8.35235L11.1558 29.5956C11.4362 30.8759 11.6875 32.2613 11.9097 33.7516C12.1319 35.2436 12.3507 36.7339 12.5678 38.226C12.5866 38.3533 12.6055 38.4807 12.6225 38.6063C12.6431 38.4807 12.6636 38.3533 12.6824 38.226C12.9097 36.7339 13.1525 35.2436 13.4072 33.7516C13.6602 32.2613 13.9405 30.8759 14.2448 29.5956L17.2586 16.9434H24.1049L27.0981 29.5956C27.4041 30.8759 27.6828 32.2613 27.9375 33.7516C28.1922 35.2436 28.4366 36.7339 28.6725 38.226C28.6896 38.3327 28.7067 38.4394 28.7238 38.5443C28.7375 38.4394 28.7529 38.3327 28.7682 38.226C28.9768 36.7339 29.199 35.2436 29.4349 33.7516C29.6708 32.2613 29.9221 30.8759 30.1888 29.5956L32.9923 16.9434H40.4489Z" fill="#1D2220"/>
<path d="M58.5264 16.9434H49.5073L40.0284 45.5502H47.5039L49.3603 39.4633H58.817L60.7384 45.5502H68.2907L58.5264 16.9434ZM50.9433 34.2799L51.3176 33.0512C51.9159 30.9775 52.4818 28.7678 53.0151 26.4187C53.3194 25.085 53.6288 23.7203 53.9433 22.3247C54.2801 23.71 54.6169 25.0695 54.9519 26.3998C55.5417 28.7471 56.1554 30.9654 56.7913 33.0512L57.1793 34.2799H50.9433Z" fill="#1D2220"/>
<path d="M82.3647 45.9341C80 45.9341 77.9404 45.5756 76.1859 44.859C74.4315 44.1422 73.0647 43.0542 72.0858 41.5951C71.1067 40.1361 70.5983 38.3059 70.5602 36.1045H77.025C77.0885 37.026 77.3397 37.8005 77.7783 38.4274C78.2169 39.0548 78.8206 39.525 79.5899 39.8386C80.359 40.1523 81.2587 40.3088 82.2884 40.3088C83.2163 40.3088 84.0173 40.1811 84.6913 39.925C85.365 39.669 85.8832 39.3105 86.2455 38.8497C86.6078 38.3891 86.7891 37.8515 86.7891 37.2372C86.7891 36.687 86.6204 36.2196 86.2837 35.8356C85.9466 35.4518 85.4413 35.1128 84.7675 34.8182C84.0935 34.5239 83.2354 34.2614 82.1931 34.031L79.1799 33.3206C76.7261 32.7576 74.8001 31.8362 73.4016 30.5561C72.003 29.2764 71.3039 27.5612 71.3039 25.4109C71.3039 23.6447 71.7807 22.0962 72.7342 20.765C73.6877 19.4339 74.9941 18.4005 76.6532 17.6644C78.3123 16.9286 80.2161 16.5605 82.3647 16.5605C84.564 16.5605 86.4711 16.9349 88.0858 17.6836C89.7002 18.4324 90.9526 19.4757 91.8427 20.8129C92.7324 22.1505 93.1901 23.7023 93.2157 25.4685H86.7509C86.6618 24.4318 86.2423 23.6255 85.4922 23.0495C84.7419 22.4736 83.6931 22.1856 82.3457 22.1856C81.4556 22.1856 80.7056 22.3041 80.0953 22.5407C79.4851 22.7778 79.0274 23.1042 78.7223 23.5199C78.4171 23.936 78.2646 24.4127 78.2646 24.9502C78.2646 25.539 78.4362 26.0348 78.7795 26.438C79.1228 26.8412 79.6121 27.1771 80.2479 27.4459C80.8835 27.7147 81.621 27.9451 82.46 28.1371L84.9201 28.713C86.2932 29.0076 87.5167 29.4074 88.5912 29.913C89.6653 30.4186 90.5745 31.0234 91.3182 31.7272C92.062 32.4312 92.6275 33.244 93.0155 34.1654C93.4031 35.0869 93.5971 36.1173 93.5971 37.2564C93.5971 39.061 93.149 40.613 92.2527 41.9119C91.3563 43.2112 90.0721 44.2061 88.4004 44.8973C86.7285 45.5884 84.7166 45.9341 82.3647 45.9341Z" fill="#1D2220"/>
<path d="M117.13 34.7607C117.13 32.9813 116.878 31.4135 116.377 30.0574C115.875 28.6996 115.162 27.5587 114.241 26.6294C113.319 25.7018 112.232 25.0014 110.979 24.5281C109.728 24.0549 108.352 23.8174 106.851 23.8174C104.716 23.8174 102.859 24.282 101.283 25.2096C99.7051 26.1372 98.488 27.433 97.6299 29.0972C96.7717 30.7613 96.3427 32.6939 96.3427 34.8949C96.3427 37.1855 96.7717 39.1577 97.6299 40.808C98.488 42.4584 99.7256 43.7301 101.339 44.6199C102.955 45.5096 104.874 45.9536 107.098 45.9536C108.828 45.9536 110.357 45.704 111.685 45.205C113.013 44.7059 114.114 43.9986 114.984 43.0831C115.856 42.1676 116.468 41.0954 116.825 39.8667L110.893 38.8875C110.716 39.3625 110.452 39.7651 110.102 40.0973C109.753 40.4311 109.333 40.6807 108.844 40.8459C108.355 41.0128 107.811 41.0954 107.213 41.0954C106.348 41.0954 105.592 40.913 104.945 40.5482C104.295 40.1833 103.791 39.6344 103.428 38.8978C103.1 38.2318 102.921 37.4161 102.89 36.4507H117.13V34.7607ZM102.926 32.5528C102.989 31.9401 103.131 31.386 103.351 30.8921C103.662 30.1951 104.117 29.6513 104.716 29.2607C105.312 28.87 106.044 28.6738 106.909 28.6738C107.772 28.6738 108.497 28.8666 109.083 29.2503C109.668 29.6341 110.109 30.1848 110.408 30.9024C110.61 31.3877 110.743 31.9384 110.808 32.5528H102.926Z" fill="#1D2220"/>
<path d="M127.275 33.3013V45.5499H120.62V24.0861H126.875L127.008 29.5001H126.722C127.243 27.798 128.06 26.4253 129.173 25.382C130.285 24.339 131.782 23.8174 133.664 23.8174C135.151 23.8174 136.448 24.1503 137.554 24.8157C138.66 25.4813 139.518 26.422 140.129 27.6379C140.739 28.8539 141.044 30.268 141.044 31.8808V45.55H134.388V33.1862C134.388 31.9833 134.083 31.0393 133.473 30.3544C132.863 29.6699 132.011 29.3273 130.918 29.3273C130.206 29.3273 129.573 29.4841 129.02 29.7976C128.467 30.1114 128.038 30.5626 127.733 31.1512C127.428 31.7401 127.275 32.4567 127.275 33.3013Z" fill="#1D2220"/>
<path d="M153.154 45.8581C151.577 45.8581 150.141 45.4454 148.844 44.6199C147.547 43.7942 146.517 42.5655 145.754 40.9337C144.992 39.3018 144.61 37.2701 144.61 34.8382C144.61 32.3297 145.007 30.2593 145.802 28.6275C146.596 26.9956 147.639 25.7861 148.93 24.999C150.22 24.2119 151.609 23.8183 153.097 23.8183C154.228 23.8183 155.194 24.0136 155.995 24.4038C156.796 24.7944 157.454 25.2903 157.969 25.8917C158.484 26.4935 158.875 27.1204 159.142 27.7732H159.294V16.9453H165.931V45.5509H159.371V42.076H159.142C158.862 42.7161 158.458 43.324 157.931 43.8999C157.403 44.4758 156.748 44.9462 155.967 45.3109C155.185 45.6758 154.247 45.8581 153.154 45.8581ZM155.423 40.636C156.262 40.636 156.984 40.396 157.588 39.9162C158.191 39.4363 158.652 38.7613 158.97 37.8908C159.288 37.0206 159.447 36.003 159.447 34.8382C159.447 33.6478 159.288 32.6208 158.97 31.7568C158.652 30.8929 158.191 30.2276 157.588 29.7602C156.984 29.2932 156.262 29.0595 155.423 29.0595C154.571 29.0595 153.85 29.2995 153.259 29.7793C152.667 30.2593 152.219 30.9313 151.914 31.7953C151.609 32.6591 151.457 33.6737 151.457 34.8382C151.457 35.99 151.609 37.0046 151.914 37.8812C152.219 38.758 152.667 39.4362 153.259 39.9162C153.85 40.396 154.571 40.636 155.423 40.636Z" fill="#1D2220"/>
<path d="M190.302 34.7607C190.302 32.9813 190.051 31.4135 189.55 30.0574C189.048 28.6996 188.335 27.5587 187.413 26.6294C186.492 25.7018 185.405 25.0014 184.152 24.5281C182.9 24.0549 181.524 23.8174 180.023 23.8174C177.888 23.8174 176.032 24.282 174.456 25.2096C172.878 26.1372 171.661 27.433 170.803 29.0972C169.945 30.7613 169.516 32.6939 169.516 34.8949C169.516 37.1855 169.945 39.1577 170.803 40.808C171.661 42.4584 172.898 43.7301 174.512 44.6199C176.128 45.5096 178.047 45.9536 180.271 45.9536C182.001 45.9536 183.53 45.704 184.858 45.205C186.186 44.7059 187.287 43.9986 188.157 43.0831C189.029 42.1676 189.641 41.0954 189.998 39.8667L184.066 38.8875C183.889 39.3625 183.625 39.7651 183.275 40.0973C182.926 40.4311 182.506 40.6807 182.017 40.8459C181.528 41.0128 180.984 41.0954 180.386 41.0954C179.521 41.0954 178.765 40.913 178.117 40.5482C177.468 40.1833 176.964 39.6344 176.601 38.8978C176.273 38.2318 176.093 37.4161 176.063 36.4507H190.302V34.7607ZM176.099 32.5528C176.162 31.9401 176.304 31.386 176.524 30.8921C176.835 30.1951 177.29 29.6513 177.888 29.2607C178.485 28.87 179.217 28.6738 180.082 28.6738C180.945 28.6738 181.67 28.8666 182.256 29.2503C182.839 29.6341 183.282 30.1848 183.581 30.9024C183.783 31.3877 183.916 31.9384 183.981 32.5528H176.099Z" fill="#1D2220"/>
<path d="M193.793 45.55V24.0861H200.257V28.0026H200.486C200.868 26.582 201.5 25.5293 202.384 24.8445C203.267 24.16 204.294 23.8174 205.464 23.8174C205.769 23.8174 206.09 23.8365 206.427 23.8749C206.763 23.9133 207.072 23.971 207.352 24.0478V29.8841C207.034 29.7689 206.617 29.6825 206.102 29.6249C205.588 29.5672 205.127 29.5384 204.72 29.5384C203.906 29.5384 203.175 29.7209 202.527 30.0856C201.878 30.4504 201.37 30.9528 201.001 31.5927C200.632 32.2328 200.448 32.9815 200.448 33.839V45.55H193.793Z" fill="#1D2220"/>
</svg>
