<svg width="50" height="25" viewBox="0 0 50 25" fill="none" xmlns="http://www.w3.org/2000/svg">
<path d="M0.495706 24C0.219575 24.0024 -0.00235193 24.2282 1.84177e-05 24.5043C0.00238879 24.7804 0.228159 25.0024 0.504289 25L0.495706 24ZM9.9208 23.479L9.78432 22.998L9.9208 23.479ZM13.7517 22.1685L13.933 22.6345L13.94 22.6318L13.9469 22.6288L13.7517 22.1685ZM17.694 20.207L17.4284 19.7834L17.694 20.207ZM21.7805 16.9849L22.1176 17.3541L21.7805 16.9849ZM24.9831 13.0797L24.5567 12.8186L24.9831 13.0797ZM26.6813 9.25462L26.1838 9.20458L26.6813 9.25462ZM26.6813 7.9925L27.1613 7.85229L26.6813 7.9925ZM25.5256 6.49386L25.8097 6.0824L25.5256 6.49386ZM21.7805 5.99431L21.7016 5.50057L21.7805 5.99431ZM18.0353 8.49197L18.5166 8.62747L18.0353 8.49197ZM18.0353 10.9897L18.4593 10.7248L18.0353 10.9897ZM24.5287 13.8146L24.4755 14.3118L24.5287 13.8146ZM30.8533 13.2563L30.9896 13.7374L30.8533 13.2563ZM38.0095 9.99061L38.3219 10.381L38.0095 9.99061ZM48.4947 0.429409C48.4557 0.156044 48.2024 -0.0339049 47.9291 0.00514731L43.4743 0.64154C43.2009 0.680593 43.011 0.933857 43.05 1.20722C43.0891 1.48059 43.3424 1.67054 43.6157 1.63149L47.5755 1.0658L48.1412 5.02558C48.1802 5.29895 48.4335 5.4889 48.7069 5.44984C48.9802 5.41079 49.1702 5.15753 49.1311 4.88416L48.4947 0.429409ZM1.69619 24.9859C1.97229 24.9813 2.19231 24.7536 2.18762 24.4775C2.18293 24.2014 1.9553 23.9814 1.6792 23.9861L1.69619 24.9859ZM4.03245 23.9005C3.75681 23.9172 3.54691 24.1542 3.56362 24.4298C3.58032 24.7054 3.81732 24.9153 4.09295 24.8986L4.03245 23.9005ZM6.49299 24.6751C6.76684 24.6396 6.96006 24.3888 6.92455 24.115C6.88905 23.8411 6.63827 23.6479 6.36442 23.6834L6.49299 24.6751ZM8.65942 23.2829C8.38999 23.3434 8.2206 23.6108 8.28109 23.8803C8.34157 24.1497 8.60903 24.3191 8.87846 24.2586L8.65942 23.2829ZM11.0425 23.6603C11.3054 23.5757 11.4499 23.2941 11.3654 23.0312C11.2809 22.7683 10.9993 22.6237 10.7364 22.7083L11.0425 23.6603ZM12.6329 22.0538C12.3735 22.1485 12.24 22.4355 12.3347 22.6949C12.4293 22.9543 12.7164 23.0878 12.9758 22.9931L12.6329 22.0538ZM14.9666 22.1767C15.2178 22.0619 15.3283 21.7652 15.2135 21.514C15.0987 21.2629 14.802 21.1524 14.5509 21.2672L14.9666 22.1767ZM16.5031 20.3122C16.2593 20.4419 16.1668 20.7447 16.2966 20.9885C16.4263 21.2323 16.729 21.3247 16.9728 21.195L16.5031 20.3122ZM19.0652 19.8792C19.2885 19.7167 19.3378 19.404 19.1754 19.1807C19.0129 18.9574 18.7002 18.9081 18.4769 19.0705L19.0652 19.8792ZM20.4801 17.4706C20.2709 17.6508 20.2474 17.9665 20.4276 18.1758C20.6078 18.385 20.9236 18.4085 21.1328 18.2283L20.4801 17.4706ZM23.0566 16.4731C23.254 16.2799 23.2573 15.9633 23.0641 15.766C22.8709 15.5687 22.5543 15.5654 22.357 15.7585L23.0566 16.4731ZM23.8911 13.8843C23.7407 14.1158 23.8065 14.4255 24.0381 14.5759C24.2697 14.7263 24.5794 14.6605 24.7298 14.4289L23.8911 13.8843ZM25.9686 12.4477C26.1151 12.2136 26.044 11.9051 25.8098 11.7586C25.5757 11.6122 25.2672 11.6833 25.1208 11.9175L25.9686 12.4477ZM26.0008 10.148C25.9213 10.4125 26.0713 10.6913 26.3358 10.7708C26.6002 10.8502 26.879 10.7003 26.9585 10.4358L26.0008 10.148ZM27.2151 9.00222C27.2504 8.72834 27.0569 8.47775 26.783 8.44252C26.5091 8.40728 26.2586 8.60075 26.2233 8.87463L27.2151 9.00222ZM26.2486 8.36044C26.2797 8.63482 26.5274 8.83201 26.8018 8.80088C27.0761 8.76975 27.2733 8.52208 27.2422 8.2477L26.2486 8.36044ZM26.9596 7.32085C26.8387 7.07259 26.5394 6.96935 26.2912 7.09026C26.0429 7.21116 25.9397 7.51044 26.0606 7.7587L26.9596 7.32085ZM25.5865 7.16706C25.7964 7.34648 26.112 7.32175 26.2914 7.11183C26.4708 6.90191 26.4461 6.5863 26.2362 6.40689L25.5865 7.16706ZM24.8269 5.5809C24.566 5.49051 24.2812 5.62876 24.1908 5.88969C24.1004 6.15061 24.2387 6.43541 24.4996 6.5258L24.8269 5.5809ZM22.7856 6.36975C23.0607 6.34675 23.2652 6.10502 23.2422 5.82984C23.2192 5.55466 22.9774 5.35023 22.7023 5.37323L22.7856 6.36975ZM21.0373 5.6348C20.7694 5.70189 20.6067 5.97343 20.6738 6.2413C20.7409 6.50916 21.0124 6.67192 21.2803 6.60482L21.0373 5.6348ZM20.2064 7.01143C20.4513 6.88385 20.5464 6.58189 20.4188 6.33699C20.2913 6.09209 19.9893 5.99698 19.7444 6.12456L20.2064 7.01143ZM18.6825 6.77349C18.4552 6.93039 18.3982 7.2418 18.5551 7.46903C18.7121 7.69626 19.0235 7.75327 19.2507 7.59636L18.6825 6.77349ZM18.675 8.20559C18.7998 7.95927 18.7013 7.6584 18.455 7.53357C18.2087 7.40874 17.9078 7.50722 17.783 7.75354L18.675 8.20559ZM17.4122 9.04233C17.3725 9.3156 17.5619 9.5693 17.8352 9.60898C18.1084 9.64866 18.3621 9.45929 18.4018 9.18601L17.4122 9.04233ZM18.3621 10.3286C18.3324 10.054 18.0858 9.85556 17.8112 9.88527C17.5367 9.91498 17.3382 10.1616 17.3679 10.4362L18.3621 10.3286ZM18.3217 12.2663C18.4967 12.48 18.8117 12.5113 19.0254 12.3363C19.239 12.1613 19.2703 11.8463 19.0953 11.6326L18.3217 12.2663ZM20.7857 12.7064C20.5205 12.6297 20.2432 12.7825 20.1664 13.0477C20.0897 13.313 20.2425 13.5902 20.5077 13.667L20.7857 12.7064ZM22.3975 14.1088C22.6714 14.1437 22.9218 13.95 22.9568 13.6761C22.9917 13.4022 22.798 13.1518 22.5241 13.1168L22.3975 14.1088ZM23.8854 13.2485C23.6104 13.2232 23.367 13.4255 23.3416 13.7005C23.3163 13.9755 23.5186 14.2189 23.7936 14.2443L23.8854 13.2485ZM26.1314 14.3684C26.4074 14.3623 26.6263 14.1335 26.6201 13.8574C26.614 13.5814 26.3852 13.3625 26.1091 13.3687L26.1314 14.3684ZM29.215 13.0794C28.9422 13.1222 28.7557 13.3781 28.7985 13.6509C28.8413 13.9237 29.0971 14.1101 29.3699 14.0674L29.215 13.0794ZM32.906 13.1715C33.1693 13.0883 33.3153 12.8074 33.2321 12.5441C33.1489 12.2808 32.868 12.1348 32.6047 12.218L32.906 13.1715ZM36.1295 10.7008C35.893 10.8433 35.8168 11.1506 35.9593 11.3871C36.1018 11.6237 36.4091 11.6998 36.6456 11.5573L36.1295 10.7008ZM39.6711 9.28956C39.8848 9.11469 39.9163 8.79968 39.7414 8.58597C39.5665 8.37225 39.2515 8.34076 39.0378 8.51564L39.6711 9.28956ZM41.6659 6.30322C41.4576 6.4845 41.4356 6.80032 41.6169 7.00863C41.7982 7.21694 42.114 7.23885 42.3223 7.05758L41.6659 6.30322ZM44.8936 4.71179C45.0922 4.51994 45.0977 4.2034 44.9058 4.00479C44.714 3.80618 44.3975 3.80071 44.1988 3.99256L44.8936 4.71179ZM46.5419 1.52368C46.3627 1.7338 46.3878 2.04939 46.5979 2.22856C46.808 2.40774 47.1236 2.38265 47.3028 2.17254L46.5419 1.52368ZM0.499998 24.5L0.504289 25C0.880921 24.9967 1.27979 24.993 1.69619 24.9859L1.6877 24.486L1.6792 23.9861C1.26735 23.9931 0.87212 23.9968 0.495706 24L0.499998 24.5ZM4.0627 24.3995L4.09295 24.8986C4.86628 24.8517 5.67167 24.7816 6.49299 24.6751L6.4287 24.1793L6.36442 23.6834C5.56997 23.7864 4.78775 23.8547 4.03245 23.9005L4.0627 24.3995ZM8.76894 23.7707L8.87846 24.2586C9.27152 24.1703 9.66501 24.0713 10.0573 23.96L9.9208 23.479L9.78432 22.998C9.41106 23.1039 9.0356 23.1984 8.65942 23.2829L8.76894 23.7707ZM9.9208 23.479L10.0573 23.96C10.3782 23.8689 10.712 23.7665 11.0425 23.6603L10.8894 23.1843L10.7364 22.7083C10.414 22.8119 10.0915 22.9108 9.78432 22.998L9.9208 23.479ZM12.8043 22.5235L12.9758 22.9931C13.2617 22.8888 13.5005 22.7993 13.668 22.7359C13.7517 22.7042 13.8177 22.6789 13.8628 22.6616C13.8854 22.6529 13.9028 22.6462 13.9146 22.6416C13.9205 22.6393 13.9251 22.6376 13.9281 22.6364C13.9297 22.6358 13.9309 22.6353 13.9317 22.635C13.9321 22.6349 13.9324 22.6347 13.9326 22.6347C13.9327 22.6346 13.9328 22.6346 13.9329 22.6345C13.9329 22.6345 13.9329 22.6345 13.933 22.6345C13.933 22.6345 13.933 22.6345 13.933 22.6345C13.933 22.6345 13.933 22.6345 13.7517 22.1685C13.5705 21.7025 13.5705 21.7025 13.5705 21.7025C13.5705 21.7025 13.5705 21.7025 13.5705 21.7025C13.5705 21.7025 13.5705 21.7025 13.5705 21.7025C13.5704 21.7025 13.5704 21.7026 13.5703 21.7026C13.5702 21.7027 13.5699 21.7027 13.5696 21.7029C13.5689 21.7031 13.5679 21.7035 13.5665 21.7041C13.5638 21.7051 13.5596 21.7068 13.554 21.7089C13.5428 21.7132 13.5261 21.7197 13.5042 21.7281C13.4604 21.7449 13.3959 21.7696 13.3138 21.8007C13.1494 21.863 12.9145 21.951 12.6329 22.0538L12.8043 22.5235ZM13.7517 22.1685C13.9469 22.6288 13.947 22.6288 13.947 22.6288C13.947 22.6288 13.947 22.6288 13.947 22.6288C13.947 22.6288 13.9471 22.6288 13.9471 22.6288C13.9472 22.6287 13.9473 22.6287 13.9474 22.6286C13.9476 22.6285 13.948 22.6284 13.9484 22.6282C13.9493 22.6278 13.9507 22.6273 13.9523 22.6265C13.9557 22.6251 13.9607 22.623 13.9672 22.6202C13.9801 22.6147 13.9991 22.6065 14.0237 22.596C14.0729 22.5748 14.1444 22.5439 14.2344 22.5045C14.4143 22.4257 14.6686 22.3129 14.9666 22.1767L14.7588 21.7219L14.5509 21.2672C14.2586 21.4008 14.0093 21.5114 13.8333 21.5884C13.7454 21.6269 13.6758 21.657 13.6284 21.6774C13.6047 21.6876 13.5865 21.6954 13.5744 21.7006C13.5683 21.7032 13.5638 21.7051 13.5608 21.7064C13.5593 21.707 13.5582 21.7075 13.5574 21.7078C13.5571 21.708 13.5568 21.7081 13.5567 21.7081C13.5566 21.7082 13.5566 21.7082 13.5565 21.7082C13.5565 21.7082 13.5565 21.7082 13.5565 21.7082L13.5565 21.7082C13.5565 21.7082 13.5565 21.7082 13.7517 22.1685ZM16.738 20.7536L16.9728 21.195C17.3221 21.0092 17.6614 20.8177 17.9597 20.6307L17.694 20.207L17.4284 19.7834C17.1569 19.9537 16.8397 20.1331 16.5031 20.3122L16.738 20.7536ZM17.694 20.207L17.9597 20.6307C18.3279 20.3998 18.6991 20.1455 19.0652 19.8792L18.7711 19.4749L18.4769 19.0705C18.1256 19.3262 17.7736 19.567 17.4284 19.7834L17.694 20.207ZM20.8065 17.8494L21.1328 18.2283C21.4871 17.9231 21.8189 17.627 22.1176 17.3541L21.7805 16.9849L21.4433 16.6157C21.1506 16.883 20.8261 17.1726 20.4801 17.4706L20.8065 17.8494ZM21.7805 16.9849L22.1176 17.3541C22.4853 17.0183 22.7918 16.7324 23.0566 16.4731L22.7068 16.1158L22.357 15.7585C22.1043 16.006 21.8076 16.2829 21.4433 16.6157L21.7805 16.9849ZM24.3105 14.1566L24.7298 14.4289C24.9312 14.1188 25.1499 13.7646 25.4095 13.3408L24.9831 13.0797L24.5567 12.8186C24.297 13.2426 24.0845 13.5865 23.8911 13.8843L24.3105 14.1566ZM24.9831 13.0797L25.4095 13.3408C25.6073 13.0178 25.7902 12.7331 25.9686 12.4477L25.5447 12.1826L25.1208 11.9175C24.951 12.189 24.757 12.4915 24.5567 12.8186L24.9831 13.0797ZM26.4797 10.2919L26.9585 10.4358C27.0625 10.0899 27.1371 9.7191 27.1788 9.30467L26.6813 9.25462L26.1838 9.20458C26.1483 9.55831 26.0856 9.86605 26.0008 10.148L26.4797 10.2919ZM26.6813 9.25462L27.1788 9.30467C27.1895 9.19847 27.2022 9.10264 27.2151 9.00222L26.7192 8.93843L26.2233 8.87463C26.2111 8.96978 26.1962 9.08145 26.1838 9.20458L26.6813 9.25462ZM26.7454 8.30407L27.2422 8.2477C27.2278 8.12105 27.2017 7.99083 27.1613 7.85229L26.6813 7.9925L26.2014 8.13271C26.2267 8.21934 26.241 8.29348 26.2486 8.36044L26.7454 8.30407ZM26.6813 7.9925L27.1613 7.85229C27.1061 7.66339 27.0407 7.48725 26.9596 7.32085L26.5101 7.53978L26.0606 7.7587C26.1126 7.86546 26.1589 7.98741 26.2014 8.13271L26.6813 7.9925ZM25.9113 6.78698L26.2362 6.40689C26.1065 6.29611 25.9645 6.18925 25.8097 6.0824L25.5256 6.49386L25.2415 6.90532C25.3759 6.99811 25.4893 7.08404 25.5865 7.16706L25.9113 6.78698ZM25.5256 6.49386L25.8097 6.0824C25.4901 5.86174 25.1635 5.6975 24.8269 5.5809L24.6632 6.05335L24.4996 6.5258C24.7488 6.61215 24.9946 6.73485 25.2415 6.90532L25.5256 6.49386ZM22.7439 5.87149L22.7023 5.37323C22.3771 5.40041 22.0435 5.44597 21.7016 5.50057L21.7805 5.99431L21.8593 6.48805C22.1882 6.43553 22.4948 6.39406 22.7856 6.36975L22.7439 5.87149ZM21.7805 5.99431L21.7016 5.50057C21.4652 5.53833 21.2453 5.58269 21.0373 5.6348L21.1588 6.11981L21.2803 6.60482C21.4569 6.56059 21.648 6.5218 21.8593 6.48805L21.7805 5.99431ZM19.9754 6.568L19.7444 6.12456C19.5472 6.2273 19.3546 6.34056 19.1595 6.46417L19.4271 6.88653L19.6947 7.30889C19.8719 7.19664 20.0396 7.0983 20.2064 7.01143L19.9754 6.568ZM19.4271 6.88653L19.1595 6.46417C18.9942 6.56891 18.8305 6.67128 18.6825 6.77349L18.9666 7.18492L19.2507 7.59636C19.3781 7.5084 19.5201 7.4195 19.6947 7.30889L19.4271 6.88653ZM18.229 7.97956L17.783 7.75354C17.6922 7.9326 17.6173 8.13158 17.554 8.35646L18.0353 8.49197L18.5166 8.62747C18.5659 8.45218 18.6191 8.31589 18.675 8.20559L18.229 7.97956ZM18.0353 8.49197L17.554 8.35646C17.4953 8.56511 17.4473 8.8004 17.4122 9.04233L17.907 9.11417L18.4018 9.18601C18.4319 8.97856 18.4717 8.78678 18.5166 8.62747L18.0353 8.49197ZM17.865 10.3824L17.3679 10.4362C17.3977 10.7111 17.4623 11.0163 17.6113 11.2546L18.0353 10.9897L18.4593 10.7248C18.4313 10.6799 18.3868 10.5562 18.3621 10.3286L17.865 10.3824ZM18.0353 10.9897L17.6113 11.2546C17.8619 11.6558 18.0941 11.9885 18.3217 12.2663L18.7085 11.9495L19.0953 11.6326C18.9031 11.398 18.6957 11.1032 18.4593 10.7248L18.0353 10.9897ZM20.6467 13.1867L20.5077 13.667C20.8386 13.7628 21.2302 13.8581 21.6516 13.9705L21.7805 13.4874L21.9093 13.0043C21.4541 12.8829 21.1059 12.7991 20.7857 12.7064L20.6467 13.1867ZM21.7805 13.4874L21.6516 13.9705C21.8846 14.0327 22.1319 14.0749 22.3975 14.1088L22.4608 13.6128L22.5241 13.1168C22.282 13.0859 22.0829 13.0506 21.9093 13.0043L21.7805 13.4874ZM23.8395 13.7464L23.7936 14.2443C24.0054 14.2638 24.2318 14.2857 24.4755 14.3118L24.5287 13.8146L24.5818 13.3175C24.332 13.2907 24.1004 13.2683 23.8854 13.2485L23.8395 13.7464ZM24.5287 13.8146L24.4755 14.3118C24.9891 14.3667 25.5553 14.3812 26.1314 14.3684L26.1202 13.8685L26.1091 13.3687C25.5613 13.3808 25.0402 13.3665 24.5818 13.3175L24.5287 13.8146ZM29.2925 13.5734L29.3699 14.0674C30.0364 13.9628 30.6111 13.8447 30.9896 13.7374L30.8533 13.2563L30.717 12.7753C30.3934 12.867 29.863 12.9778 29.215 13.0794L29.2925 13.5734ZM30.8533 13.2563L30.9896 13.7374C31.6779 13.5424 32.3119 13.3593 32.906 13.1715L32.7554 12.6948L32.6047 12.218C32.0258 12.401 31.4039 12.5806 30.717 12.7753L30.8533 13.2563ZM36.3876 11.1291L36.6456 11.5573C37.1982 11.2244 37.7492 10.8393 38.3219 10.381L38.0095 9.99061L37.697 9.60023C37.1559 10.0333 36.641 10.3926 36.1295 10.7008L36.3876 11.1291ZM38.0095 9.99061L38.3219 10.381C38.7938 10.0033 39.243 9.6398 39.6711 9.28956L39.3544 8.9026L39.0378 8.51564C38.6127 8.86346 38.1663 9.22471 37.697 9.60023L38.0095 9.99061ZM41.9941 6.6804L42.3223 7.05758C43.3268 6.18343 44.1718 5.40906 44.8936 4.71179L44.5462 4.35218L44.1988 3.99256C43.4913 4.67603 42.6594 5.43865 41.6659 6.30322L41.9941 6.6804ZM46.9224 1.84811L47.3028 2.17254C47.723 1.67974 48.0786 1.22837 48.3998 0.800118L47.9998 0.50012L47.5998 0.200121C47.2892 0.614151 46.9467 1.04895 46.5419 1.52368L46.9224 1.84811Z" fill="#1D2220"/>
</svg>
