<svg width="16" height="16" viewBox="0 0 16 16" fill="none" xmlns="http://www.w3.org/2000/svg">
<path d="M14.2734 7.72016L8.27337 1.72016C8.03337 1.48016 7.70004 1.3335 7.33337 1.3335H2.66671C1.93337 1.3335 1.33337 1.9335 1.33337 2.66683V7.3335C1.33337 7.70016 1.48004 8.0335 1.72671 8.28016L7.72671 14.2802C7.96671 14.5202 8.30004 14.6668 8.66671 14.6668C9.03337 14.6668 9.36671 14.5202 9.60671 14.2735L14.2734 9.60683C14.52 9.36683 14.6667 9.0335 14.6667 8.66683C14.6667 8.30016 14.5134 7.96016 14.2734 7.72016ZM3.66671 4.66683C3.11337 4.66683 2.66671 4.22016 2.66671 3.66683C2.66671 3.1135 3.11337 2.66683 3.66671 2.66683C4.22004 2.66683 4.66671 3.1135 4.66671 3.66683C4.66671 4.22016 4.22004 4.66683 3.66671 4.66683Z" fill="white"/>
</svg>
