<svg width="50" height="46" viewBox="0 0 50 46" fill="none" xmlns="http://www.w3.org/2000/svg">
<path d="M49.1579 0.994936C49.4311 0.955276 49.6205 0.701589 49.5809 0.428311C49.5412 0.155032 49.2875 -0.034354 49.0142 0.00530563L49.1579 0.994936ZM34.8886 6.43357L34.6103 6.01813L34.6025 6.02336L34.5949 6.02888L34.8886 6.43357ZM27.8352 12.5336L27.5134 12.1509L27.8352 12.5336ZM23.4359 18.3596L22.9735 18.1695L22.9726 18.1716L23.4359 18.3596ZM22.7576 32.5753L23.2003 32.3429L22.7576 32.5753ZM30.2192 37.7446L30.1401 38.2383L30.2192 37.7446ZM39.7157 35.8061L39.3315 35.4861L39.7157 35.8061ZM41.7507 26.7598L42.232 26.6244L41.7507 26.7598ZM37.6807 21.5905L37.3901 21.9973L37.6807 21.5905ZM20.7226 20.2993L20.8739 20.7758L20.7226 20.2993ZM12.5827 24.8224L12.9276 25.1845L12.5827 24.8224ZM7.83445 30.6379L7.42444 30.3517L7.83445 30.6379ZM4.44282 38.3919L3.96105 38.2581L3.95678 38.2735L3.95349 38.2892L4.44282 38.3919ZM3.7645 41.6227L3.27517 41.52L3.27343 41.5282L3.27198 41.5365L3.7645 41.6227ZM2.67698 45.7873C2.83567 46.0133 3.14752 46.0679 3.37351 45.9092L7.05623 43.3232C7.28222 43.1645 7.33677 42.8526 7.17808 42.6266C7.01939 42.4007 6.70755 42.3461 6.48156 42.5048L3.20803 44.8035L0.909349 41.5299C0.750658 41.304 0.438813 41.2494 0.212823 41.4081C-0.0131669 41.5668 -0.0677236 41.8786 0.0909672 42.1046L2.67698 45.7873ZM3.74827 44.6168C3.79586 44.3448 3.61393 44.0857 3.34192 44.0382C3.06991 43.9906 2.81082 44.1725 2.76324 44.4445L3.74827 44.6168ZM3.1024 42.5059C3.05481 42.7779 3.23674 43.037 3.50875 43.0846C3.78076 43.1321 4.03985 42.9502 4.08744 42.6782L3.1024 42.5059ZM4.42341 40.9177C4.48015 40.6475 4.30707 40.3824 4.03682 40.3257C3.76657 40.2689 3.50149 40.442 3.44475 40.7123L4.42341 40.9177ZM3.78391 39.0969C3.72717 39.3671 3.90026 39.6322 4.1705 39.6889C4.44075 39.7457 4.70583 39.5726 4.76257 39.3023L3.78391 39.0969ZM5.56467 36.5383C5.65661 36.278 5.52006 35.9923 5.25968 35.9004C4.99929 35.8085 4.71367 35.945 4.62173 36.2054L5.56467 36.5383ZM6.30584 32.233C6.17912 32.4783 6.27529 32.7799 6.52064 32.9066C6.76599 33.0334 7.06761 32.9372 7.19433 32.6918L6.30584 32.233ZM9.32852 29.4029C9.49198 29.1803 9.44407 28.8674 9.22151 28.7039C8.99895 28.5405 8.68601 28.5884 8.52255 28.8109L9.32852 29.4029ZM10.9058 25.8427C10.7218 26.0486 10.7395 26.3647 10.9454 26.5487C11.1512 26.7327 11.4673 26.715 11.6514 26.5092L10.9058 25.8427ZM14.6904 23.7568C14.9169 23.5987 14.9724 23.2871 14.8144 23.0606C14.6564 22.8341 14.3447 22.7786 14.1182 22.9366L14.6904 23.7568ZM18.3273 20.6493C18.0728 20.7564 17.9533 21.0496 18.0604 21.3041C18.1675 21.5586 18.4607 21.6781 18.7152 21.571L18.3273 20.6493ZM22.9584 20.2032C23.2273 20.1404 23.3943 19.8714 23.3314 19.6025C23.2685 19.3336 22.9996 19.1666 22.7307 19.2295L22.9584 20.2032ZM27.1592 18.5583C26.8837 18.5764 26.6751 18.8146 26.6932 19.0901C26.7114 19.3656 26.9495 19.5743 27.2251 19.5561L27.1592 18.5583ZM31.5095 19.7101C31.7825 19.7513 32.0373 19.5634 32.0785 19.2904C32.1197 19.0173 31.9318 18.7625 31.6588 18.7213L31.5095 19.7101ZM36.0017 20.0231C35.7526 19.904 35.454 20.0093 35.3348 20.2584C35.2157 20.5075 35.321 20.8061 35.5701 20.9252L36.0017 20.0231ZM38.6077 23.0223C38.8059 23.2145 39.1224 23.2097 39.3147 23.0115C39.507 22.8133 39.5022 22.4968 39.304 22.3045L38.6077 23.0223ZM41.4711 24.994C41.3273 24.7582 41.0196 24.6837 40.7839 24.8276C40.5481 24.9714 40.4736 25.2791 40.6174 25.5148L41.4711 24.994ZM41.5878 29.1445C41.5915 29.4206 41.8183 29.6415 42.0944 29.6378C42.3706 29.6341 42.5914 29.4072 42.5877 29.1311L41.5878 29.1445ZM41.4747 34.0131C41.5971 33.7655 41.4956 33.4656 41.248 33.3433C41.0005 33.2209 40.7006 33.3224 40.5782 33.57L41.4747 34.0131ZM37.4944 36.8327C37.2417 36.944 37.127 37.2391 37.2384 37.4918C37.3497 37.7445 37.6448 37.8591 37.8975 37.7478L37.4944 36.8327ZM32.7098 38.5111C32.9856 38.5239 33.2196 38.3106 33.2324 38.0347C33.2451 37.7589 33.0319 37.5249 32.756 37.5121L32.7098 38.5111ZM28.1448 36.6594C27.8884 36.5569 27.5975 36.6817 27.495 36.9381C27.3925 37.1946 27.5173 37.4855 27.7737 37.588L28.1448 36.6594ZM23.762 34.8104C23.9491 35.0135 24.2654 35.0266 24.4685 34.8395C24.6717 34.6525 24.6847 34.3362 24.4977 34.133L23.762 34.8104ZM22.5687 30.7427C22.4932 30.4771 22.2167 30.323 21.9511 30.3985C21.6854 30.474 21.5314 30.7506 21.6069 31.0162L22.5687 30.7427ZM21.1367 27.2642C21.1358 27.5404 21.3589 27.765 21.635 27.7659C21.9112 27.7668 22.1357 27.5437 22.1367 27.2675L21.1367 27.2642ZM22.4739 23.7187C22.5216 23.4467 22.3398 23.1875 22.0679 23.1397C21.7959 23.092 21.5367 23.2738 21.4889 23.5457L22.4739 23.7187ZM22.3634 19.9361C22.2823 20.2001 22.4304 20.4798 22.6944 20.561C22.9583 20.6422 23.2381 20.494 23.3193 20.2301L22.3634 19.9361ZM24.7174 16.9909C24.8599 16.7543 24.7837 16.4471 24.5471 16.3046C24.3106 16.1621 24.0033 16.2383 23.8608 16.4749L24.7174 16.9909ZM26.1366 13.4577C25.9477 13.6591 25.9579 13.9755 26.1594 14.1644C26.3608 14.3533 26.6772 14.3431 26.8661 14.1416L26.1366 13.4577ZM29.926 11.3603C30.1292 11.1733 30.1423 10.857 29.9553 10.6538C29.7684 10.4506 29.452 10.4375 29.2489 10.6245L29.926 11.3603ZM32.7207 7.46754C32.507 7.6425 32.4757 7.95753 32.6506 8.17116C32.8256 8.3848 33.1406 8.41615 33.3543 8.24119L32.7207 7.46754ZM36.7823 5.82274C37.0189 5.68033 37.0953 5.3731 36.9529 5.13651C36.8104 4.89992 36.5032 4.82358 36.2666 4.96599L36.7823 5.82274ZM39.7165 3.10676C39.4675 3.22613 39.3624 3.52476 39.4818 3.77377C39.6012 4.02277 39.8998 4.12786 40.1488 4.00849L39.7165 3.10676ZM43.6714 2.51995C43.9306 2.42471 44.0635 2.13738 43.9683 1.87818C43.873 1.61898 43.5857 1.48607 43.3265 1.58132L43.6714 2.51995ZM47.0732 0.416767C46.8054 0.484183 46.643 0.755918 46.7104 1.0237C46.7778 1.29149 47.0496 1.45392 47.3174 1.38651L47.0732 0.416767ZM3.08617 45.5L3.57869 45.5862L3.74827 44.6168L3.25575 44.5307L2.76324 44.4445L2.59366 45.4138L3.08617 45.5ZM3.59492 42.592L4.08744 42.6782L4.25702 41.7089L3.7645 41.6227L3.27198 41.5365L3.1024 42.5059L3.59492 42.592ZM3.7645 41.6227L4.25383 41.7254L4.42341 40.9177L3.93408 40.815L3.44475 40.7123L3.27517 41.52L3.7645 41.6227ZM4.27324 39.1996L4.76257 39.3023L4.93215 38.4946L4.44282 38.3919L3.95349 38.2892L3.78391 39.0969L4.27324 39.1996ZM4.44282 38.3919C4.9246 38.5257 4.92459 38.5257 4.92459 38.5257C4.92458 38.5257 4.92458 38.5257 4.92458 38.5257C4.92458 38.5257 4.92458 38.5257 4.92459 38.5257C4.9246 38.5257 4.92462 38.5256 4.92466 38.5254C4.92474 38.5251 4.92487 38.5247 4.92506 38.524C4.92544 38.5226 4.92605 38.5205 4.92687 38.5175C4.92852 38.5116 4.93107 38.5026 4.93449 38.4906C4.94133 38.4666 4.9517 38.4305 4.96549 38.3833C4.99307 38.2888 5.03436 38.15 5.08866 37.9743C5.19729 37.6227 5.35782 37.1241 5.56467 36.5383L5.0932 36.3719L4.62173 36.2054C4.40975 36.8057 4.24508 37.3171 4.13324 37.679C4.0773 37.8601 4.03452 38.0039 4.0056 38.1029C3.99114 38.1524 3.98014 38.1907 3.97269 38.2169C3.96896 38.23 3.96612 38.24 3.96418 38.2469C3.96321 38.2504 3.96246 38.2531 3.96194 38.2549C3.96168 38.2559 3.96147 38.2566 3.96132 38.2571C3.96125 38.2574 3.96119 38.2576 3.96114 38.2578C3.96112 38.2579 3.9611 38.2579 3.96109 38.258C3.96108 38.258 3.96107 38.2581 3.96107 38.2581C3.96106 38.2581 3.96105 38.2581 4.44282 38.3919ZM6.75009 32.4624L7.19433 32.6918C7.52009 32.0611 7.87174 31.4581 8.24445 30.9241L7.83445 30.6379L7.42444 30.3517C7.01994 30.9313 6.64593 31.5745 6.30584 32.233L6.75009 32.4624ZM7.83445 30.6379L8.24445 30.9241C8.52608 30.5206 8.89381 29.9948 9.32852 29.4029L8.92553 29.1069L8.52255 28.8109C8.08018 29.4133 7.70657 29.9475 7.42444 30.3517L7.83445 30.6379ZM11.2786 26.1759L11.6514 26.5092C12.0633 26.0484 12.4911 25.6003 12.9276 25.1845L12.5827 24.8224L12.2379 24.4604C11.7784 24.8981 11.3319 25.3661 10.9058 25.8427L11.2786 26.1759ZM12.5827 24.8224L12.9276 25.1845C13.4543 24.6827 14.0475 24.2053 14.6904 23.7568L14.4043 23.3467L14.1182 22.9366C13.4396 23.4101 12.8061 23.9191 12.2379 24.4604L12.5827 24.8224ZM18.5213 21.1102L18.7152 21.571C19.4284 21.2709 20.153 21.0047 20.8739 20.7758L20.7226 20.2993L20.5713 19.8227C19.8218 20.0607 19.0687 20.3373 18.3273 20.6493L18.5213 21.1102ZM20.7226 20.2993L20.8739 20.7758C21.4945 20.5788 22.1961 20.3815 22.9584 20.2032L22.8446 19.7164L22.7307 19.2295C21.9418 19.414 21.2153 19.6182 20.5713 19.8227L20.7226 20.2993ZM27.1922 19.0572L27.2251 19.5561C28.6204 19.464 30.0724 19.4932 31.5095 19.7101L31.5841 19.2157L31.6588 18.7213C30.1378 18.4917 28.6123 18.4623 27.1592 18.5583L27.1922 19.0572ZM35.7859 20.4742L35.5701 20.9252C36.1973 21.2252 36.8062 21.5803 37.3901 21.9973L37.6807 21.5905L37.9713 21.1836C37.3381 20.7313 36.6787 20.347 36.0017 20.0231L35.7859 20.4742ZM37.6807 21.5905L37.3901 21.9973C37.8079 22.2957 38.2181 22.6443 38.6077 23.0223L38.9558 22.6634L39.304 22.3045C38.8841 21.8972 38.4358 21.5153 37.9713 21.1836L37.6807 21.5905ZM41.0443 25.2544L40.6174 25.5148C40.9449 26.0515 41.1664 26.529 41.2694 26.8952L41.7507 26.7598L42.232 26.6244C42.095 26.1373 41.8242 25.5727 41.4711 24.994L41.0443 25.2544ZM41.7507 26.7598L41.2694 26.8952C41.4688 27.6041 41.5773 28.363 41.5878 29.1445L42.0877 29.1378L42.5877 29.1311C42.5761 28.2664 42.456 27.4208 42.232 26.6244L41.7507 26.7598ZM41.0265 33.7915L40.5782 33.57C40.2476 34.2389 39.8333 34.8837 39.3315 35.4861L39.7157 35.8061L40.0999 36.1261C40.6532 35.4619 41.1101 34.7507 41.4747 34.0131L41.0265 33.7915ZM39.7157 35.8061L39.3315 35.4861C38.842 36.0737 38.2186 36.5136 37.4944 36.8327L37.6959 37.2902L37.8975 37.7478C38.7402 37.3765 39.4966 36.8503 40.0999 36.1261L39.7157 35.8061ZM32.7329 38.0116L32.756 37.5121C31.93 37.4739 31.0995 37.3792 30.2982 37.2509L30.2192 37.7446L30.1401 38.2383C30.9711 38.3714 31.8395 38.4708 32.7098 38.5111L32.7329 38.0116ZM30.2192 37.7446L30.2982 37.2509C29.5103 37.1247 28.7937 36.9187 28.1448 36.6594L27.9593 37.1237L27.7737 37.588C28.4893 37.8739 29.2772 38.1001 30.1401 38.2383L30.2192 37.7446ZM24.1299 34.4717L24.4977 34.133C23.847 33.4264 23.4219 32.7651 23.2003 32.3429L22.7576 32.5753L22.3149 32.8076C22.5762 33.3055 23.0513 34.0384 23.762 34.8104L24.1299 34.4717ZM22.7576 32.5753L23.2003 32.3429C22.936 31.8393 22.728 31.3028 22.5687 30.7427L22.0878 30.8794L21.6069 31.0162C21.7828 31.6347 22.015 32.2364 22.3149 32.8076L22.7576 32.5753ZM21.6367 27.2659L22.1367 27.2675C22.1406 26.0524 22.277 24.8398 22.4739 23.7187L21.9814 23.6322L21.4889 23.5457C21.2848 24.7081 21.1409 25.9789 21.1367 27.2642L21.6367 27.2659ZM22.8414 20.0831L23.3193 20.2301C23.4806 19.7055 23.6266 19.2824 23.7318 18.9915C23.7844 18.8461 23.8268 18.7338 23.8558 18.6585C23.8703 18.6209 23.8814 18.5925 23.8888 18.5739C23.8924 18.5645 23.8952 18.5577 23.897 18.5533C23.8978 18.5511 23.8985 18.5495 23.8988 18.5486C23.899 18.5481 23.8992 18.5478 23.8992 18.5476C23.8993 18.5475 23.8993 18.5475 23.8993 18.5475C23.8993 18.5475 23.8993 18.5475 23.8993 18.5475C23.8993 18.5476 23.8992 18.5476 23.8992 18.5476C23.8992 18.5476 23.8992 18.5476 23.4359 18.3596C22.9726 18.1716 22.9726 18.1717 22.9726 18.1717C22.9726 18.1717 22.9726 18.1718 22.9725 18.1718C22.9725 18.1718 22.9725 18.1719 22.9725 18.172C22.9724 18.1722 22.9723 18.1724 22.9722 18.1726C22.972 18.1731 22.9718 18.1737 22.9714 18.1745C22.9708 18.1762 22.9699 18.1784 22.9687 18.1813C22.9664 18.187 22.9631 18.1953 22.9589 18.206C22.9504 18.2275 22.9381 18.2588 22.9225 18.2994C22.8912 18.3806 22.8465 18.4992 22.7914 18.6513C22.6814 18.9556 22.5301 19.3942 22.3634 19.9361L22.8414 20.0831ZM23.4359 18.3596C23.8984 18.5498 23.8983 18.5498 23.8983 18.5499C23.8983 18.5499 23.8983 18.5499 23.8983 18.5499C23.8983 18.55 23.8982 18.55 23.8982 18.5501C23.8982 18.5501 23.8982 18.5502 23.8982 18.5501C23.8982 18.5501 23.8983 18.5499 23.8984 18.5496C23.8987 18.5489 23.8993 18.5475 23.9001 18.5456C23.9018 18.5417 23.9045 18.5353 23.9082 18.5265C23.9158 18.5089 23.9276 18.4817 23.9438 18.4456C23.9761 18.3735 24.0258 18.2659 24.0934 18.1284C24.2287 17.8533 24.4353 17.4592 24.7174 16.9909L24.2891 16.7329L23.8608 16.4749C23.5623 16.9705 23.3422 17.3898 23.1961 17.6871C23.1229 17.8358 23.0682 17.9542 23.0313 18.0364C23.0129 18.0776 22.9989 18.1097 22.9893 18.1321C22.9845 18.1433 22.9808 18.1521 22.9781 18.1583C22.9768 18.1615 22.9758 18.164 22.975 18.1658C22.9746 18.1668 22.9743 18.1676 22.974 18.1682C22.9739 18.1685 22.9738 18.1687 22.9737 18.169C22.9737 18.1691 22.9736 18.1692 22.9736 18.1693C22.9736 18.1693 22.9735 18.1694 22.9735 18.1694C22.9735 18.1695 22.9735 18.1695 23.4359 18.3596ZM26.5014 13.7996L26.8661 14.1416C27.2557 13.7261 27.6855 13.3126 28.1569 12.9164L27.8352 12.5336L27.5134 12.1509C27.0091 12.5749 26.5507 13.016 26.1366 13.4577L26.5014 13.7996ZM27.8352 12.5336L28.1569 12.9164C28.853 12.3313 29.4225 11.8237 29.926 11.3603L29.5874 10.9924L29.2489 10.6245C28.7548 11.0792 28.1965 11.5767 27.5134 12.1509L27.8352 12.5336ZM33.0375 7.85436L33.3543 8.24119C33.8684 7.82009 34.4604 7.36203 35.1822 6.83825L34.8886 6.43357L34.5949 6.02888C33.8588 6.56301 33.2513 7.03295 32.7207 7.46754L33.0375 7.85436ZM34.8886 6.43357L35.1668 6.849C35.7092 6.48572 36.2486 6.14404 36.7823 5.82274L36.5245 5.39437L36.2666 4.96599C35.7195 5.29533 35.1665 5.64563 34.6103 6.01813L34.8886 6.43357ZM39.9327 3.55762L40.1488 4.00849C41.4085 3.40459 42.5965 2.91493 43.6714 2.51995L43.499 2.05063L43.3265 1.58132C42.2245 1.98627 41.0071 2.48805 39.7165 3.10676L39.9327 3.55762ZM47.1953 0.901636L47.3174 1.38651C47.904 1.23882 48.3677 1.1404 48.6831 1.07916C48.8407 1.04854 48.9613 1.02721 49.0415 1.01368C49.0816 1.00691 49.1116 1.00209 49.1311 0.999033C49.1409 0.997503 49.148 0.996412 49.1525 0.995737C49.1547 0.995399 49.1563 0.995166 49.1572 0.995033C49.1577 0.994967 49.1579 0.994926 49.158 0.99491C49.1581 0.994902 49.1581 0.9949 49.1581 0.994904C49.1581 0.994906 49.158 0.99491 49.158 0.994915C49.158 0.994918 49.1579 0.994923 49.1579 0.994924C49.1579 0.99493 49.1579 0.994936 49.0861 0.500121C49.0142 0.00530563 49.0142 0.00531228 49.0141 0.00531931C49.0141 0.00532217 49.0141 0.00532959 49.014 0.00533532C49.014 0.00534679 49.0139 0.00535981 49.0138 0.00537442C49.0136 0.00540362 49.0133 0.00543912 49.013 0.00548093C49.0125 0.00556462 49.0117 0.00567363 49.0108 0.00580837C49.009 0.00607787 49.0065 0.00645028 49.0033 0.0069286C48.997 0.00788523 48.988 0.00926549 48.9763 0.0110933C48.953 0.0147489 48.9191 0.0201949 48.8751 0.0276224C48.787 0.042477 48.6584 0.0652602 48.4924 0.097502C48.1604 0.161981 47.6788 0.264317 47.0732 0.416767L47.1953 0.901636Z" fill="#1D2220"/>
</svg>
