<svg width="18" height="18" viewBox="0 0 18 18" fill="none" xmlns="http://www.w3.org/2000/svg">
<path d="M16.7521 1.65891C16.8386 1.56003 16.9047 1.44509 16.9468 1.32064C16.9888 1.1962 17.0059 1.06469 16.9972 0.933628C16.9884 0.802565 16.9539 0.674514 16.8956 0.556786C16.8374 0.439057 16.7565 0.333957 16.6576 0.247487C16.5587 0.161016 16.4438 0.0948676 16.3193 0.0528188C16.1949 0.0107699 16.0634 -0.00635604 15.9323 0.00241863C15.8013 0.0111933 15.6732 0.0456969 15.5555 0.103959C15.4377 0.162221 15.3326 0.243101 15.2462 0.341981L10.1365 6.18167L5.79969 0.399978C5.70654 0.275789 5.58577 0.174991 5.44692 0.105567C5.30807 0.036143 5.15497 0 4.99973 0H0.999946C0.814244 0 0.632211 0.0517119 0.474244 0.149341C0.316276 0.24697 0.188616 0.38666 0.105567 0.552756C0.022519 0.718853 -0.0126361 0.904795 0.00404095 1.08975C0.020718 1.2747 0.0885685 1.45135 0.19999 1.59991L6.63664 10.1814L1.24693 16.3411C1.16046 16.44 1.09431 16.5549 1.05226 16.6794C1.01022 16.8038 0.99309 16.9353 1.00186 17.0664C1.01064 17.1975 1.04514 17.3255 1.10341 17.4432C1.16167 17.561 1.24255 17.6661 1.34143 17.7525C1.44031 17.839 1.55525 17.9052 1.6797 17.9472C1.80414 17.9893 1.93565 18.0064 2.06671 17.9976C2.19777 17.9888 2.32582 17.9543 2.44355 17.8961C2.56128 17.8378 2.66638 17.7569 2.75285 17.658L7.86257 11.8174L12.1993 17.599C12.2925 17.7232 12.4133 17.824 12.5521 17.8935C12.691 17.9629 12.8441 17.999 12.9993 17.999H16.9991C17.1848 17.999 17.3668 17.9473 17.5248 17.8497C17.6827 17.7521 17.8104 17.6124 17.8935 17.4463C17.9765 17.2802 18.0117 17.0942 17.995 16.9093C17.9783 16.7243 17.9105 16.5477 17.799 16.3991L11.3624 7.81758L16.7521 1.65891Z" fill="#1D2220"/>
</svg>
