<svg width="33" height="19" viewBox="0 0 33 19" fill="none" xmlns="http://www.w3.org/2000/svg">
<path d="M0.495068 0.999975C0.218939 0.997252 -0.00269967 0.771196 2.43187e-05 0.495068C0.00274831 0.218939 0.228803 -0.0026989 0.504932 2.47955e-05L0.495068 0.999975ZM6.64834 1.26577L6.49335 1.74114L6.64834 1.26577ZM9.14854 2.24862L9.3526 1.79216L9.36015 1.79553L9.36759 1.79916L9.14854 2.24862ZM11.7214 3.71973L11.4291 4.12539L11.7214 3.71973ZM14.3884 6.13638L14.7504 5.79148L14.3884 6.13638ZM16.4785 9.06527L16.0373 9.30044L16.4785 9.06527ZM17.5868 11.9341L17.0887 11.9777L17.5868 11.9341ZM17.5868 12.8807L18.0714 13.0039L17.5868 12.8807ZM16.8326 14.0047L17.1434 14.3964L16.8326 14.0047ZM14.3884 14.3793L14.2981 14.8711L14.3884 14.3793ZM12.8525 13.7102L13.1468 13.306L12.8525 13.7102ZM11.9441 12.5061L12.4298 12.3871L11.9441 12.5061ZM11.9441 10.6328L12.3834 10.8716L11.9441 10.6328ZM14.3884 8.75947L14.5349 9.23751L14.3884 8.75947ZM16.1819 8.51407L16.1209 8.0178L16.1819 8.51407ZM20.3096 8.93278L20.4645 8.45736L20.3096 8.93278ZM24.98 11.3821L25.3185 11.0141L24.98 11.3821ZM31.9893 18.6028C31.9325 18.8731 31.6674 19.0461 31.3972 18.9893L26.9934 18.0637C26.7231 18.0069 26.5501 17.7418 26.6069 17.4715C26.6637 17.2013 26.9288 17.0283 27.1991 17.0851L31.1135 17.9078L31.9363 13.9934C31.9931 13.7231 32.2582 13.5501 32.5285 13.6069C32.7987 13.6637 32.9717 13.9288 32.9149 14.1991L31.9893 18.6028ZM2.07518 0.0337524C2.35109 0.0449677 2.56567 0.277731 2.55446 0.553646C2.54324 0.829561 2.31048 1.04414 2.03456 1.03293L2.07518 0.0337524ZM5.04557 1.36541C4.77479 1.31127 4.59917 1.04787 4.65331 0.777084C4.70745 0.5063 4.97086 0.330679 5.24164 0.384821L5.04557 1.36541ZM7.45584 1.01856C7.71485 1.1143 7.84722 1.40188 7.75148 1.6609C7.65575 1.91991 7.36816 2.05228 7.10915 1.95654L7.45584 1.01856ZM8.33851 2.4442C8.08387 2.33737 7.96406 2.04433 8.07089 1.7897C8.17773 1.53506 8.47076 1.41524 8.7254 1.52207L8.33851 2.4442ZM10.0418 2.14274C10.2862 2.2712 10.3802 2.5735 10.2518 2.81794C10.1233 3.06239 9.821 3.15641 9.57656 3.02795L10.0418 2.14274ZM10.8409 3.73901C10.6054 3.59487 10.5313 3.28709 10.6754 3.05155C10.8196 2.816 11.1274 2.74191 11.3629 2.88604L10.8409 3.73901ZM12.752 3.89106C12.9637 4.0683 12.9917 4.38364 12.8145 4.5954C12.6372 4.80716 12.3219 4.83514 12.1101 4.65791L12.752 3.89106ZM13.406 5.84832C13.2098 5.654 13.2083 5.33743 13.4026 5.14122C13.5969 4.94502 13.9135 4.9435 14.1097 5.13782L13.406 5.84832ZM15.3773 6.46799C15.5605 6.67461 15.5415 6.99062 15.3349 7.17383C15.1283 7.35703 14.8123 7.33806 14.6291 7.13144L15.3773 6.46799ZM15.6114 8.51632C15.4758 8.27579 15.5608 7.97084 15.8013 7.83519C16.0418 7.69954 16.3468 7.78456 16.4824 8.02509L15.6114 8.51632ZM17.2891 9.50804C17.421 9.75064 17.3313 10.0542 17.0887 10.1862C16.8461 10.3181 16.5425 10.2283 16.4106 9.98575L17.2891 9.50804ZM16.9746 11.2944C16.9056 11.027 17.0664 10.7543 17.3338 10.6853C17.6012 10.6163 17.8738 10.7772 17.9428 11.0445L16.9746 11.2944ZM18.1085 12.1155C18.1392 12.3899 17.9416 12.6373 17.6672 12.668C17.3928 12.6988 17.1454 12.5012 17.1147 12.2268L18.1085 12.1155ZM17.1311 12.5974C17.1581 12.3226 17.4028 12.1217 17.6776 12.1487C17.9524 12.1757 18.1533 12.4203 18.1263 12.6952L17.1311 12.5974ZM17.9413 13.4015C17.8351 13.6564 17.5424 13.777 17.2875 13.6709C17.0326 13.5648 16.912 13.2721 17.0181 13.0171L17.9413 13.4015ZM16.7404 13.4217C16.9365 13.2272 17.2531 13.2285 17.4475 13.4245C17.642 13.6206 17.6408 13.9372 17.4447 14.1316L16.7404 13.4217ZM16.471 14.793C16.2152 14.8969 15.9235 14.7738 15.8196 14.5179C15.7157 14.2621 15.8389 13.9704 16.0948 13.8665L16.471 14.793ZM15.0696 13.9742C15.3445 14.0003 15.5462 14.2443 15.5201 14.5192C15.494 14.7941 15.2499 14.9958 14.975 14.9697L15.0696 13.9742ZM13.8373 14.7637C13.5721 14.6868 13.4194 14.4095 13.4963 14.1443C13.5731 13.879 13.8505 13.7263 14.1157 13.8032L13.8373 14.7637ZM13.4616 13.5168C13.6983 13.6591 13.7747 13.9663 13.6324 14.2029C13.4901 14.4396 13.1829 14.516 12.9463 14.3737L13.4616 13.5168ZM12.2286 13.868C12.013 13.6955 11.9781 13.3808 12.1507 13.1652C12.3232 12.9496 12.6379 12.9148 12.8535 13.0873L12.2286 13.868ZM12.5234 12.6781C12.6325 12.9318 12.5151 13.2259 12.2614 13.3349C12.0077 13.4439 11.7137 13.3266 11.6047 13.0729L12.5234 12.6781ZM11.3643 12.1017C11.3297 11.8277 11.5238 11.5776 11.7977 11.543C12.0717 11.5084 12.3218 11.7024 12.3564 11.9764L11.3643 12.1017ZM12.3306 11.1376C12.305 11.4125 12.0614 11.6147 11.7864 11.5891C11.5115 11.5635 11.3093 11.3199 11.3349 11.0449L12.3306 11.1376ZM11.9515 9.65797C12.1097 9.43169 12.4215 9.37655 12.6478 9.53482C12.874 9.6931 12.9292 10.0048 12.7709 10.2311L11.9515 9.65797ZM13.779 9.46858C13.5175 9.55717 13.2336 9.41696 13.145 9.15542C13.0564 8.89387 13.1966 8.61003 13.4582 8.52144L13.779 9.46858ZM14.7584 8.17095C15.0316 8.1308 15.2856 8.31973 15.3258 8.59294C15.3659 8.86615 15.177 9.12017 14.9038 9.16032L14.7584 8.17095ZM15.7844 9.0625C15.5098 9.09159 15.2636 8.89256 15.2345 8.61795C15.2054 8.34335 15.4045 8.09715 15.6791 8.06806L15.7844 9.0625ZM17.2357 7.97386C17.5118 7.98097 17.7298 8.21052 17.7227 8.48657C17.7156 8.76262 17.486 8.98064 17.21 8.97353L17.2357 7.97386ZM19.2061 9.18776C18.9344 9.13869 18.7539 8.87862 18.8029 8.60687C18.852 8.33512 19.1121 8.1546 19.3838 8.20367L19.2061 9.18776ZM21.7416 8.89125C22.001 8.98577 22.1348 9.27273 22.0402 9.5322C21.9457 9.79166 21.6588 9.92537 21.3993 9.83085L21.7416 8.89125ZM23.6596 10.9551C23.4331 10.7972 23.3776 10.4855 23.5356 10.259C23.6936 10.0325 24.0053 9.97701 24.2318 10.135L23.6596 10.9551ZM26.21 11.843C26.4112 12.0322 26.4209 12.3486 26.2317 12.5498C26.0425 12.7509 25.726 12.7606 25.5249 12.5714L26.21 11.843ZM27.2507 14.2421C27.0556 14.0468 27.0558 13.7302 27.2512 13.535C27.4465 13.3399 27.7631 13.3401 27.9583 13.5354L27.2507 14.2421ZM29.645 15.3068C29.8296 15.5122 29.8128 15.8283 29.6074 16.0129C29.402 16.1975 29.0859 16.1806 28.9013 15.9752L29.645 15.3068ZM30.4085 17.8048C30.2442 17.5829 30.291 17.2697 30.5129 17.1054C30.7349 16.9411 31.048 16.9879 31.2123 17.2098L30.4085 17.8048ZM0.5 0.5L0.504932 2.47955e-05C0.97884 0.00469971 1.50937 0.0107536 2.07518 0.0337524L2.05487 0.533339L2.03456 1.03293C1.48569 1.01062 0.968873 1.00465 0.495068 0.999975L0.5 0.5ZM5.14361 0.875116L5.24164 0.384821C5.75888 0.488241 6.28248 0.620579 6.80333 0.790401L6.64834 1.26577L6.49335 1.74114C6.01452 1.58502 5.52944 1.46216 5.04557 1.36541L5.14361 0.875116ZM6.64834 1.26577L6.80333 0.790401C7.01657 0.859928 7.23772 0.937944 7.45584 1.01856L7.28249 1.48755L7.10915 1.95654C6.89989 1.8792 6.69134 1.80569 6.49335 1.74114L6.64834 1.26577ZM8.53195 1.98314L8.7254 1.52207C8.91249 1.60057 9.0687 1.66783 9.17835 1.71556C9.2332 1.73943 9.27644 1.75844 9.30612 1.77154C9.32097 1.7781 9.33242 1.78318 9.34025 1.78666C9.34416 1.7884 9.34717 1.78974 9.34924 1.79066C9.35027 1.79112 9.35107 1.79148 9.35163 1.79173C9.35192 1.79185 9.35214 1.79195 9.3523 1.79202C9.35238 1.79206 9.35244 1.79209 9.3525 1.79211C9.35252 1.79212 9.35254 1.79213 9.35256 1.79214C9.35257 1.79214 9.35258 1.79215 9.35258 1.79215C9.35259 1.79215 9.3526 1.79216 9.14854 2.24862C8.94449 2.70509 8.94449 2.70509 8.9445 2.70509C8.9445 2.70509 8.9445 2.7051 8.9445 2.7051C8.94451 2.7051 8.94451 2.7051 8.9445 2.7051C8.94449 2.70509 8.94447 2.70508 8.94443 2.70506C8.94435 2.70503 8.94421 2.70496 8.94401 2.70488C8.94362 2.7047 8.94298 2.70442 8.94212 2.70403C8.94038 2.70326 8.93772 2.70207 8.93416 2.70049C8.92702 2.69732 8.91629 2.69256 8.90219 2.68633C8.87399 2.67388 8.83236 2.65558 8.77924 2.63246C8.67297 2.5862 8.52088 2.52072 8.33851 2.4442L8.53195 1.98314ZM9.14854 2.24862C9.36759 1.79916 9.3676 1.79916 9.36761 1.79917C9.36762 1.79917 9.36763 1.79918 9.36764 1.79918C9.36766 1.79919 9.36769 1.79921 9.36772 1.79922C9.36778 1.79925 9.36785 1.79929 9.36794 1.79933C9.36813 1.79942 9.36838 1.79954 9.3687 1.7997C9.36933 1.80001 9.37023 1.80045 9.37138 1.80101C9.37369 1.80214 9.37703 1.80378 9.38137 1.8059C9.39004 1.81016 9.40269 1.81639 9.41901 1.82446C9.45164 1.8406 9.49895 1.86413 9.55843 1.89405C9.67734 1.95389 9.84515 2.03943 10.0418 2.14274L9.80915 2.58535L9.57656 3.02795C9.38607 2.92784 9.22358 2.84502 9.10895 2.78735C9.05167 2.75852 9.0064 2.73601 8.97565 2.7208C8.96027 2.7132 8.94853 2.70742 8.94074 2.70359C8.93684 2.70168 8.93393 2.70025 8.93204 2.69933C8.9311 2.69887 8.93041 2.69853 8.92998 2.69833C8.92977 2.69822 8.92962 2.69815 8.92954 2.69811C8.9295 2.69809 8.92948 2.69808 8.92947 2.69807C8.92947 2.69807 8.92947 2.69807 8.92947 2.69808C8.92947 2.69808 8.92948 2.69808 8.92948 2.69808C8.92949 2.69808 8.9295 2.69809 9.14854 2.24862ZM11.1019 3.31253L11.3629 2.88604C11.5917 3.02606 11.8156 3.17131 12.0137 3.31408L11.7214 3.71973L11.4291 4.12539C11.2579 4.002 11.0566 3.87095 10.8409 3.73901L11.1019 3.31253ZM11.7214 3.71973L12.0137 3.31408C12.2605 3.49188 12.5084 3.6872 12.752 3.89106L12.431 4.27448L12.1101 4.65791C11.881 4.46617 11.6524 4.28629 11.4291 4.12539L11.7214 3.71973ZM13.7579 5.49307L14.1097 5.13782C14.3402 5.36609 14.556 5.58746 14.7504 5.79148L14.3884 6.13638L14.0264 6.48127C13.8376 6.28319 13.6287 6.06884 13.406 5.84832L13.7579 5.49307ZM14.3884 6.13638L14.7504 5.79148C14.9956 6.04891 15.2003 6.26839 15.3773 6.46799L15.0032 6.79972L14.6291 7.13144C14.4637 6.94494 14.2685 6.73538 14.0264 6.48127L14.3884 6.13638ZM16.0469 8.2707L16.4824 8.02509C16.6125 8.25575 16.7536 8.51837 16.9198 8.83011L16.4785 9.06527L16.0373 9.30044C15.871 8.98846 15.735 8.73542 15.6114 8.51632L16.0469 8.2707ZM16.4785 9.06527L16.9198 8.83011C17.0506 9.07565 17.1702 9.28933 17.2891 9.50804L16.8498 9.74689L16.4106 9.98575C16.2995 9.78157 16.1699 9.54927 16.0373 9.30044L16.4785 9.06527ZM17.4587 11.1695L17.9428 11.0445C18.0099 11.3044 18.0579 11.5819 18.0849 11.8905L17.5868 11.9341L17.0887 11.9777C17.0663 11.721 17.0271 11.498 16.9746 11.2944L17.4587 11.1695ZM17.5868 11.9341L18.0849 11.8905C18.0918 11.969 18.1 12.0399 18.1085 12.1155L17.6116 12.1711L17.1147 12.2268C17.1067 12.1557 17.0969 12.071 17.0887 11.9777L17.5868 11.9341ZM17.6287 12.6463L18.1263 12.6952C18.1166 12.7941 18.0989 12.8958 18.0714 13.0039L17.5868 12.8807L17.1023 12.7575C17.1179 12.6961 17.1265 12.6441 17.1311 12.5974L17.6287 12.6463ZM17.5868 12.8807L18.0714 13.0039C18.0359 13.1435 17.9937 13.2755 17.9413 13.4015L17.4797 13.2093L17.0181 13.0171C17.0484 12.9442 17.0763 12.8597 17.1023 12.7575L17.5868 12.8807ZM17.0926 13.7767L17.4447 14.1316C17.3524 14.2232 17.2518 14.3103 17.1434 14.3964L16.8326 14.0047L16.5218 13.613C16.6092 13.5437 16.6806 13.481 16.7404 13.4217L17.0926 13.7767ZM16.8326 14.0047L17.1434 14.3964C16.9276 14.5676 16.7041 14.6984 16.471 14.793L16.2829 14.3298L16.0948 13.8665C16.2349 13.8096 16.3763 13.7284 16.5218 13.613L16.8326 14.0047ZM15.0223 14.4719L14.975 14.9697C14.7525 14.9486 14.5263 14.913 14.2981 14.8711L14.3884 14.3793L14.4786 13.8875C14.6919 13.9267 14.887 13.9568 15.0696 13.9742L15.0223 14.4719ZM14.3884 14.3793L14.2981 14.8711C14.1351 14.8412 13.9825 14.8057 13.8373 14.7637L13.9765 14.2834L14.1157 13.8032C14.225 13.8349 14.3447 13.863 14.4786 13.8875L14.3884 14.3793ZM13.2039 13.9452L12.9463 14.3737C12.8143 14.2943 12.6863 14.2077 12.5582 14.1144L12.8525 13.7102L13.1468 13.306C13.2573 13.3864 13.3604 13.4559 13.4616 13.5168L13.2039 13.9452ZM12.8525 13.7102L12.5582 14.1144C12.4477 14.0339 12.3325 13.9512 12.2286 13.868L12.541 13.4777L12.8535 13.0873C12.9349 13.1525 13.0264 13.2183 13.1468 13.306L12.8525 13.7102ZM12.0641 12.8755L11.6047 13.0729C11.5465 12.9374 11.4987 12.7893 11.4585 12.6251L11.9441 12.5061L12.4298 12.3871C12.4597 12.5093 12.4913 12.6033 12.5234 12.6781L12.0641 12.8755ZM11.9441 12.5061L11.4585 12.6251C11.4193 12.465 11.3875 12.2854 11.3643 12.1017L11.8604 12.039L12.3564 11.9764C12.3758 12.13 12.4013 12.271 12.4298 12.3871L11.9441 12.5061ZM11.8327 11.0912L11.3349 11.0449C11.3543 10.8365 11.3972 10.592 11.5049 10.394L11.9441 10.6328L12.3834 10.8716C12.3837 10.8711 12.3807 10.8767 12.3759 10.8902C12.3711 10.9035 12.3656 10.922 12.3598 10.9462C12.3481 10.9955 12.3379 11.0594 12.3306 11.1376L11.8327 11.0912ZM11.9441 10.6328L11.5049 10.394C11.6608 10.107 11.8071 9.86433 11.9515 9.65797L12.3612 9.94455L12.7709 10.2311C12.6547 10.3972 12.5281 10.6055 12.3834 10.8716L11.9441 10.6328ZM13.6186 8.99501L13.4582 8.52144C13.6859 8.4443 13.9618 8.36728 14.2418 8.28143L14.3884 8.75947L14.5349 9.23751C14.2159 9.33531 13.9906 9.39693 13.779 9.46858L13.6186 8.99501ZM14.3884 8.75947L14.2418 8.28143C14.4073 8.23068 14.5797 8.1972 14.7584 8.17095L14.8311 8.66563L14.9038 9.16032C14.7521 9.1826 14.6341 9.20711 14.5349 9.23751L14.3884 8.75947ZM15.7317 8.56528L15.6791 8.06806C15.8166 8.05349 15.9633 8.03718 16.1209 8.0178L16.1819 8.51407L16.2429 9.01033C16.0782 9.03059 15.9256 9.04753 15.7844 9.0625L15.7317 8.56528ZM16.1819 8.51407L16.1209 8.0178C16.4704 7.97484 16.8519 7.96398 17.2357 7.97386L17.2229 8.4737L17.21 8.97353C16.8587 8.96448 16.5291 8.97515 16.2429 9.01033L16.1819 8.51407ZM19.295 8.69571L19.3838 8.20367C19.8215 8.28271 20.2055 8.37302 20.4645 8.45736L20.3096 8.93278L20.1548 9.40821C19.957 9.34379 19.6228 9.26299 19.2061 9.18776L19.295 8.69571ZM20.3096 8.93278L20.4645 8.45736C20.9215 8.6062 21.3446 8.74662 21.7416 8.89125L21.5704 9.36105L21.3993 9.83085C21.0196 9.69252 20.6104 9.55658 20.1548 9.40821L20.3096 8.93278ZM23.9457 10.5451L24.2318 10.135C24.5912 10.3857 24.9487 10.674 25.3185 11.0141L24.98 11.3821L24.6415 11.7501C24.3013 11.4372 23.9786 11.1777 23.6596 10.9551L23.9457 10.5451ZM24.98 11.3821L25.3185 11.0141C25.6304 11.301 25.9273 11.5771 26.21 11.843L25.8675 12.2072L25.5249 12.5714C25.245 12.3082 24.9509 12.0347 24.6415 11.7501L24.98 11.3821ZM27.6045 13.8888L27.9583 13.5354C28.6176 14.1955 29.1718 14.7802 29.645 15.3068L29.2732 15.641L28.9013 15.9752C28.4414 15.4635 27.8995 14.8916 27.2507 14.2421L27.6045 13.8888ZM30.8104 17.5073L31.2123 17.2098C31.4823 17.5746 31.7115 17.9092 31.9187 18.2267L31.5 18.5L31.0813 18.7733C30.8832 18.4697 30.6652 18.1514 30.4085 17.8048L30.8104 17.5073Z" fill="#1D2220"/>
</svg>
