<svg width="19" height="19" viewBox="0 0 19 19" fill="none" xmlns="http://www.w3.org/2000/svg">
<path d="M9.49739 6.33183C7.753 6.33183 6.32945 7.75538 6.32945 9.49977C6.32945 11.2442 7.753 12.6677 9.49739 12.6677C11.2418 12.6677 12.6653 11.2442 12.6653 9.49977C12.6653 7.75538 11.2418 6.33183 9.49739 6.33183ZM18.9988 9.49977C18.9988 8.18791 19.0107 6.88794 18.937 5.57846C18.8634 4.05747 18.5164 2.70759 17.4042 1.59537C16.2896 0.480769 14.9421 0.13617 13.4211 0.0624971C12.1092 -0.0111759 10.8092 0.00070689 9.49977 0.00070689C8.18791 0.00070689 6.88794 -0.0111759 5.57846 0.0624971C4.05747 0.13617 2.70759 0.483146 1.59537 1.59537C0.480769 2.70997 0.13617 4.05747 0.0624971 5.57846C-0.0111759 6.89032 0.00070689 8.19029 0.00070689 9.49977C0.00070689 10.8092 -0.0111759 12.1116 0.0624971 13.4211C0.13617 14.9421 0.483146 16.2919 1.59537 17.4042C2.70997 18.5188 4.05747 18.8634 5.57846 18.937C6.89032 19.0107 8.19029 18.9988 9.49977 18.9988C10.8116 18.9988 12.1116 19.0107 13.4211 18.937C14.9421 18.8634 16.2919 18.5164 17.4042 17.4042C18.5188 16.2896 18.8634 14.9421 18.937 13.4211C19.0131 12.1116 18.9988 10.8116 18.9988 9.49977ZM9.49739 14.3741C6.80001 14.3741 4.62309 12.1971 4.62309 9.49977C4.62309 6.80238 6.80001 4.62547 9.49739 4.62547C12.1948 4.62547 14.3717 6.80238 14.3717 9.49977C14.3717 12.1971 12.1948 14.3741 9.49739 14.3741ZM14.5713 5.5642C13.9415 5.5642 13.433 5.05562 13.433 4.42584C13.433 3.79605 13.9415 3.28747 14.5713 3.28747C15.2011 3.28747 15.7097 3.79605 15.7097 4.42584C15.7099 4.57538 15.6806 4.7235 15.6234 4.86169C15.5663 4.99989 15.4824 5.12546 15.3767 5.2312C15.2709 5.33695 15.1454 5.42079 15.0072 5.47793C14.869 5.53507 14.7209 5.56439 14.5713 5.5642Z" fill="#1D2220"/>
</svg>
