<svg width="14" height="11" viewBox="0 0 14 11" fill="none" xmlns="http://www.w3.org/2000/svg">
<path d="M13.8222 10.1964C13.8515 10.2841 13.8545 10.3799 13.8309 10.4706C13.8073 10.5612 13.7582 10.6422 13.6903 10.7023C13.6225 10.7624 13.5393 10.7986 13.4523 10.806C13.3653 10.8133 13.2788 10.7914 13.2048 10.7433L11.2419 9.46414C9.60067 8.39456 7.73807 7.76816 5.81027 7.63745C5.71053 8.29528 5.59976 8.95132 5.47801 9.60525L5.32202 10.441C5.30049 10.5571 5.25137 10.6657 5.17949 10.7562C5.10761 10.8467 5.01542 10.9159 4.91195 10.9572C4.80849 10.9984 4.6973 11.0102 4.58928 10.9914C4.48126 10.9726 4.38011 10.9239 4.29575 10.85C2.69542 9.44682 1.36241 7.72527 0.367407 5.77668L0.0511582 5.15702C0.00907603 5.07466 -0.00764514 4.9797 0.00335679 4.88558C0.0143587 4.79146 0.0525277 4.70293 0.112472 4.63248L0.563105 4.10247C1.98065 2.43555 3.6748 1.06754 5.55571 0.0709791C5.65478 0.0185577 5.76437 -0.00553756 5.87375 0.00105124C5.98313 0.00764009 6.08856 0.0446872 6.17971 0.108567C6.27087 0.172447 6.34463 0.260972 6.39378 0.365477C6.44292 0.469982 6.46578 0.586888 6.46009 0.704754L6.41892 1.55577C6.39112 2.1261 6.35499 2.69546 6.31052 3.26385L6.84733 3.3266C8.31112 3.49782 9.69514 4.10286 10.8457 5.07454C11.9962 6.04622 12.8682 7.3465 13.3649 8.83099L13.8222 10.1964Z" fill="black"/>
</svg>
