<svg width="16" height="16" viewBox="0 0 16 16" fill="none" xmlns="http://www.w3.org/2000/svg">
<path d="M1.33325 6.00004C1.33325 4.74271 1.33325 4.11471 1.72392 3.72404C2.11459 3.33337 2.74259 3.33337 3.99992 3.33337H11.9999C13.2573 3.33337 13.8853 3.33337 14.2759 3.72404C14.6666 4.11471 14.6666 4.74271 14.6666 6.00004C14.6666 6.31404 14.6666 6.47137 14.5693 6.56937C14.4713 6.66671 14.3133 6.66671 13.9999 6.66671H1.99992C1.68592 6.66671 1.52859 6.66671 1.43059 6.56937C1.33325 6.47137 1.33325 6.31337 1.33325 6.00004ZM1.33325 12C1.33325 13.2574 1.33325 13.8854 1.72392 14.276C2.11459 14.6667 2.74259 14.6667 3.99992 14.6667H11.9999C13.2573 14.6667 13.8853 14.6667 14.2759 14.276C14.6666 13.8854 14.6666 13.2574 14.6666 12V8.66671C14.6666 8.35271 14.6666 8.19537 14.5693 8.09737C14.4713 8.00004 14.3133 8.00004 13.9999 8.00004H1.99992C1.68592 8.00004 1.52859 8.00004 1.43059 8.09737C1.33325 8.19537 1.33325 8.35337 1.33325 8.66671V12Z" fill="#A5A7A6"/>
<path d="M4.6665 2V4M11.3332 2V4" stroke="#A5A7A6" stroke-width="2" stroke-linecap="round"/>
</svg>
