<svg width="20" height="18" viewBox="0 0 20 18" fill="none" xmlns="http://www.w3.org/2000/svg">
<path fill-rule="evenodd" clip-rule="evenodd" d="M7.31218 3.94532L16.6529 0.143529C16.9696 0.0191839 17.3115 -0.0253546 17.6491 0.0137745C17.9867 0.0529035 18.3097 0.174519 18.5902 0.368079C18.8706 0.561639 19.1001 0.821302 19.2586 1.12456C19.4172 1.42781 19.5 1.76551 19.5 2.10837V13.6698C19.5 14.0037 19.4213 14.3329 19.2705 14.6302C19.1196 14.9275 18.901 15.1844 18.6324 15.3797C18.3639 15.575 18.0533 15.7032 17.7261 15.7536C17.3989 15.804 17.0645 15.7753 16.7504 15.6697L7.31218 12.3781V3.94532ZM4.17816 3.94532H5.57106V13.7836C5.57106 14.1563 5.71781 14.5138 5.97903 14.7774C6.24025 15.041 6.59453 15.1891 6.96395 15.1891H7.6604C8.02982 15.1891 8.38411 15.3371 8.64532 15.6007C8.90654 15.8643 9.05329 16.2218 9.05329 16.5945C9.05329 16.9673 8.90654 17.3248 8.64532 17.5883C8.38411 17.8519 8.02982 18 7.6604 18H6.96395C5.8557 18 4.79283 17.5558 4.00918 16.765C3.22552 15.9743 2.78527 14.9019 2.78527 13.7836V12.1392C1.856 11.8073 1.07288 11.1547 0.574243 10.2967C0.0756014 9.43865 -0.106475 8.43042 0.060176 7.45008C0.226827 6.46973 0.731482 5.58035 1.485 4.93905C2.23851 4.29774 3.1924 3.94578 4.17816 3.94532Z" fill="#019F53"/>
</svg>
