<svg width="18" height="18" viewBox="0 0 18 18" fill="none" xmlns="http://www.w3.org/2000/svg">
<path d="M9 12.9557L5.8875 14.8307C5.75 14.9182 5.60625 14.9557 5.45625 14.9432C5.30625 14.9307 5.175 14.8807 5.0625 14.7932C4.95 14.7057 4.8625 14.5964 4.8 14.4654C4.7375 14.3344 4.725 14.1874 4.7625 14.0244L5.5875 10.4807L2.83125 8.09941C2.70625 7.98691 2.62825 7.85866 2.59725 7.71466C2.56625 7.57066 2.5755 7.43016 2.625 7.29316C2.6745 7.15616 2.7495 7.04366 2.85 6.95566C2.9505 6.86766 3.088 6.81141 3.2625 6.78691L6.9 6.46816L8.30625 3.13066C8.36875 2.98066 8.46575 2.86816 8.59725 2.79316C8.72875 2.71816 8.863 2.68066 9 2.68066C9.137 2.68066 9.27125 2.71816 9.40275 2.79316C9.53425 2.86816 9.63125 2.98066 9.69375 3.13066L11.1 6.46816L14.7375 6.78691C14.9125 6.81191 15.05 6.86816 15.15 6.95566C15.25 7.04316 15.325 7.15566 15.375 7.29316C15.425 7.43066 15.4345 7.57141 15.4035 7.71541C15.3725 7.85941 15.2943 7.98741 15.1688 8.09941L12.4125 10.4807L13.2375 14.0244C13.275 14.1869 13.2625 14.3339 13.2 14.4654C13.1375 14.5969 13.05 14.7062 12.9375 14.7932C12.825 14.8802 12.6938 14.9302 12.5438 14.9432C12.3938 14.9562 12.25 14.9187 12.1125 14.8307L9 12.9557Z" fill="#019F53"/>
</svg>
