<svg width="28" height="28" viewBox="0 0 28 28" fill="none" xmlns="http://www.w3.org/2000/svg">
<rect width="28" height="28" rx="14" fill="#E7FED8"/>
<path d="M22.808 12.536L21.56 12.128C21.392 11.528 21.224 10.952 20.984 10.4C20.528 10.184 20.048 9.992 19.592 9.824V6.416H17.984L17.36 9.176C15.152 8.696 12.872 8.672 10.592 9.176L9.96798 6.416H8.35998V9.824C7.87998 9.992 7.42398 10.184 6.96798 10.4C6.72798 10.952 6.53598 11.528 6.39198 12.128L5.14398 12.536C4.73598 12.68 4.37598 13.16 4.37598 13.592V16.784C4.37598 17.216 4.71198 17.696 5.14398 17.84L6.39198 18.248C6.53598 18.824 6.72798 19.4 6.96798 19.976C11.648 22.184 16.64 22.04 20.96 19.976C21.2 19.4 21.392 18.824 21.536 18.248L22.784 17.84C23.192 17.696 23.552 17.216 23.552 16.784V13.592C23.552 13.16 23.216 12.68 22.784 12.536H22.808ZM20.12 17.72C19.952 18.416 19.4 18.992 18.728 19.208C17.216 19.736 15.632 20 14.048 20C12.464 20 10.88 19.736 9.36798 19.208C7.85598 18.68 8.14398 18.416 7.97598 17.72C7.56798 16.064 7.56798 14.336 7.97598 12.68C8.38398 11.024 8.69598 11.408 9.36798 11.192C10.904 10.664 12.464 10.4 14.048 10.4C16.424 10.4 17.216 10.664 18.752 11.192C20.288 11.72 19.976 11.984 20.144 12.68C20.552 14.336 20.552 16.064 20.144 17.72H20.12Z" fill="#1D2220"/>
<path d="M10.7839 12.608C10.3519 12.608 9.99194 12.968 9.99194 13.4V15.392C9.99194 15.824 10.3519 16.184 10.7839 16.184C11.2159 16.184 11.5759 15.824 11.5759 15.392V13.4C11.5759 12.968 11.2159 12.608 10.7839 12.608ZM17.2399 12.608C16.8079 12.608 16.3999 12.944 16.3999 13.4V15.344C16.3999 15.776 16.7359 16.184 17.1679 16.184C17.5999 16.184 18.0079 15.848 18.0079 15.392V13.448C18.0079 13.016 17.6719 12.608 17.2399 12.608ZM14.9839 17.192H12.9919C12.6559 17.192 12.3919 17.456 12.3919 17.792C12.3919 18.128 12.6559 18.392 12.9919 18.392H14.9839C15.3199 18.392 15.5839 18.128 15.5839 17.792C15.5839 17.456 15.3199 17.192 14.9839 17.192Z" fill="#1D2220"/>
</svg>
