<svg width="18" height="18" viewBox="0 0 18 18" fill="none" xmlns="http://www.w3.org/2000/svg">
<path fill-rule="evenodd" clip-rule="evenodd" d="M10.6856 0.1368C10.3351 -4.02331e-08 9.88984 0 9.00027 0C8.11069 0 7.66638 -4.02331e-08 7.31491 0.1368C7.08364 0.226571 6.87335 0.358903 6.69613 0.526182C6.51891 0.693461 6.37826 0.892382 6.28228 1.1115C6.19323 1.3122 6.15912 1.5471 6.14491 1.8882C6.13815 2.13525 6.0654 2.37661 5.93348 2.58962C5.80157 2.80262 5.61483 2.98028 5.39081 3.1059C5.16225 3.22659 4.90532 3.29053 4.64383 3.29179C4.38234 3.29305 4.12475 3.23159 3.89492 3.1131C3.57471 2.9529 3.3426 2.8647 3.11334 2.8359C2.61179 2.77373 2.10465 2.90178 1.70177 3.1923C1.4005 3.4101 1.17787 3.7737 0.73356 4.5C0.288298 5.2263 0.0666145 5.589 0.0164041 5.9445C-0.0499115 6.4179 0.0865092 6.8967 0.39535 7.2756C0.53556 7.4484 0.73356 7.5933 1.03956 7.7751C1.49145 8.0424 1.78135 8.4978 1.78135 9C1.78135 9.5022 1.49145 9.9576 1.04051 10.224C0.73356 10.4067 0.53556 10.5516 0.394403 10.7244C0.242414 10.9118 0.130798 11.1258 0.0659378 11.3542C0.00107764 11.5826 -0.0157545 11.8209 0.0164041 12.0555C0.0666145 12.4101 0.288298 12.7737 0.73356 13.5C1.17882 14.2263 1.4005 14.589 1.70177 14.8077C2.10345 15.0984 2.61124 15.2262 3.11334 15.1641C3.3426 15.1353 3.57471 15.0471 3.89492 14.8869C4.12487 14.7683 4.38264 14.7067 4.64431 14.708C4.90598 14.7092 5.16308 14.7732 5.39176 14.8941C5.85217 15.1461 6.12502 15.6096 6.14491 16.1118C6.15912 16.4538 6.19323 16.6878 6.28228 16.8885C6.47554 17.3295 6.84691 17.6805 7.31491 17.8632C7.66543 18 8.11069 18 9.00027 18C9.88984 18 10.3351 18 10.6856 17.8632C10.9169 17.7734 11.1272 17.6411 11.3044 17.4738C11.4816 17.3065 11.6223 17.1076 11.7183 16.8885C11.8073 16.6878 11.8414 16.4538 11.8556 16.1118C11.8746 15.6096 12.1484 15.1452 12.6097 14.8941C12.8383 14.7734 13.0952 14.7095 13.3567 14.7082C13.6182 14.707 13.8758 14.7684 14.1056 14.8869C14.4258 15.0471 14.6579 15.1353 14.8872 15.1641C15.3893 15.2271 15.8971 15.0984 16.2988 14.8077C16.6 14.5899 16.8227 14.2263 17.267 13.5C17.7122 12.7737 17.9339 12.411 17.9841 12.0555C18.0162 11.8209 17.9992 11.5825 17.9342 11.3541C17.8691 11.1257 17.7573 10.9117 17.6052 10.7244C17.465 10.5516 17.267 10.4067 16.961 10.2249C16.5091 9.9576 16.2192 9.5022 16.2192 9C16.2192 8.4978 16.5091 8.0424 16.96 7.776C17.267 7.5933 17.465 7.4484 17.6061 7.2756C17.7581 7.08821 17.8697 6.87419 17.9346 6.64579C17.9995 6.41739 18.0163 6.17908 17.9841 5.9445C17.9339 5.5899 17.7122 5.2263 17.267 4.5C16.8217 3.7737 16.6 3.411 16.2988 3.1923C15.8959 2.90178 15.3887 2.77373 14.8872 2.8359C14.6579 2.8647 14.4258 2.9529 14.1056 3.1131C13.8757 3.23175 13.6179 3.2933 13.3562 3.29204C13.0946 3.29078 12.8375 3.22675 12.6088 3.1059C12.3849 2.98017 12.1984 2.80247 12.0666 2.58947C11.9349 2.37647 11.8623 2.13516 11.8556 1.8882C11.8414 1.5462 11.8073 1.3122 11.7183 1.1115C11.6223 0.892382 11.4816 0.693461 11.3044 0.526182C11.1272 0.358903 10.9169 0.226571 10.6856 0.1368ZM9.00027 11.7C10.5824 11.7 11.8642 10.4913 11.8642 9C11.8642 7.5087 10.5814 6.3 9.00027 6.3C7.41912 6.3 6.13638 7.5087 6.13638 9C6.13638 10.4913 7.41912 11.7 9.00027 11.7Z" fill="#019F53"/>
</svg>
