<svg width="544" height="480" viewBox="0 0 544 480" fill="none" xmlns="http://www.w3.org/2000/svg">
<g clip-path="url(#clip0_1_1648)">
<path d="M233.386 294.638L295.056 393.345L429.441 406.56L421.705 275.353L362.928 225.232L302.573 229.418C302.573 229.44 241.977 232.201 233.386 294.638Z" fill="#1E2321"/>
<path d="M429.441 407.194C429.419 407.194 429.397 407.194 429.375 407.194L294.99 393.979C294.793 393.957 294.618 393.848 294.508 393.673L232.838 294.966C232.751 294.834 232.729 294.681 232.751 294.549C237.243 262.027 255.981 245.876 270.905 238.052C287.057 229.592 302.398 228.803 302.529 228.782L362.862 224.596C363.037 224.596 363.191 224.64 363.322 224.749L422.099 274.87C422.231 274.979 422.318 275.154 422.318 275.33L430.054 406.537C430.076 406.712 429.989 406.909 429.857 407.041C429.77 407.129 429.594 407.194 429.441 407.194ZM295.428 392.73L428.761 405.836L421.069 275.658L362.709 225.889L302.617 230.075C302.441 230.075 287.364 230.863 271.453 239.213C256.836 246.884 238.514 262.685 234.044 294.506L295.428 392.73Z" fill="#22273F"/>
<path d="M225.343 272.194C215.35 245.72 193.697 222.797 193.697 222.797L166.238 235.311C166.238 235.311 175.376 320.057 208.6 337.502C251.422 360.009 274.806 280.149 274.806 280.149L225.343 272.194Z" fill="white"/>
<path d="M223.568 342.15C218.549 342.15 213.443 340.792 208.293 338.096C194.355 330.776 182.937 311.25 174.346 280.064C167.969 256.922 165.624 235.62 165.602 235.401C165.58 235.116 165.712 234.875 165.975 234.743L193.434 222.23C193.676 222.12 193.982 222.164 194.158 222.383C194.377 222.624 215.81 245.504 225.803 271.649L274.916 279.56C275.091 279.582 275.266 279.692 275.354 279.845C275.442 279.998 275.486 280.196 275.42 280.371C274.85 282.343 260.999 328.716 234.767 339.827C231.129 341.361 227.381 342.15 223.568 342.15ZM166.939 235.708C167.728 242.457 177.612 320.52 208.907 336.956C217.607 341.537 226.154 342.085 234.285 338.644C258.238 328.497 272.132 286.617 273.995 280.7L225.256 272.854C225.036 272.81 224.839 272.657 224.751 272.46C215.569 248.112 196.24 226.525 193.566 223.61L166.939 235.708Z" fill="#22273F"/>
<path d="M169.591 237.701C169.591 237.701 153.527 235.203 135.425 207.677L172.703 182.693L186.575 191.065L193.588 223.697" fill="white"/>
<path d="M169.591 238.336C169.547 238.336 169.525 238.336 169.481 238.336C168.824 238.226 152.913 235.465 134.877 208.027C134.679 207.742 134.767 207.348 135.052 207.15L172.33 182.167C172.527 182.035 172.812 182.013 173.009 182.145L186.882 190.517C187.035 190.604 187.145 190.758 187.167 190.933L194.18 223.565C194.245 223.916 194.026 224.244 193.697 224.332C193.347 224.398 193.018 224.179 192.93 223.85L185.983 191.481L172.703 183.46L136.301 207.852C153.833 234.26 169.525 237.043 169.678 237.065C170.029 237.131 170.27 237.459 170.204 237.788C170.16 238.117 169.897 238.336 169.591 238.336Z" fill="#22273F"/>
<path d="M183.879 190.496C183.879 190.496 158.304 143.663 149.823 146.358C141.342 149.054 159.049 180.371 168.144 192.358" fill="white"/>
<path d="M168.166 192.972C167.969 192.972 167.772 192.885 167.662 192.709C159.4 181.839 144.717 156.264 147.281 148.199C147.675 146.928 148.486 146.096 149.648 145.723C158.37 142.94 181.819 185.324 184.449 190.167C184.625 190.474 184.515 190.869 184.186 191.044C183.879 191.219 183.485 191.11 183.31 190.781C173.119 172.153 155.872 145.087 150.02 146.95C149.253 147.191 148.749 147.739 148.486 148.594C146.207 155.826 160.452 181.116 168.67 191.942C168.889 192.227 168.824 192.622 168.539 192.841C168.429 192.929 168.298 192.972 168.166 192.972Z" fill="#22273F"/>
<path d="M179.65 211.667C177.568 196.151 181.25 184.317 183.419 180.328C185.589 176.339 191.09 170.861 196.064 174.586C201.039 178.312 192.207 195.011 194.508 204.325C196.809 213.639 194.048 227.599 194.048 227.599" fill="white"/>
<path d="M194.026 228.257C193.982 228.257 193.938 228.257 193.895 228.235C193.544 228.17 193.325 227.841 193.391 227.49C193.412 227.359 196.086 213.552 193.851 204.479C192.755 200.008 194.07 194.135 195.363 188.437C196.7 182.476 197.993 176.844 195.648 175.091C194.333 174.104 192.865 173.776 191.331 174.104C188.306 174.762 185.391 177.94 183.945 180.613C181.775 184.646 178.203 196.305 180.263 211.558C180.307 211.908 180.066 212.237 179.715 212.281C179.365 212.325 179.036 212.084 178.992 211.733C176.888 196.129 180.592 184.164 182.827 180C184.449 176.975 187.627 173.6 191.068 172.855C192.996 172.439 194.793 172.833 196.437 174.061C199.439 176.296 198.124 182.06 196.634 188.7C195.451 193.982 194.092 199.965 195.122 204.15C197.423 213.508 194.793 227.14 194.662 227.709C194.596 228.038 194.333 228.257 194.026 228.257Z" fill="#22273F"/>
<path d="M144.519 183.701C144.519 183.701 137.112 186.375 136.959 191.306C136.915 192.38 136.301 193.344 135.403 193.936C133.364 195.272 130.559 198.121 132.729 202.877C136.191 210.438 139.764 212.586 144.585 211.753C149.406 210.92 150.853 204.017 150.853 204.017L144.519 183.701Z" fill="white"/>
<path d="M162.205 199.439C162.205 199.439 161.066 204.633 156.792 206.671C152.519 208.709 143.533 204.392 139.895 195.998C139.567 191.264 140.575 186.991 144.541 183.682L162.205 199.439Z" fill="white"/>
<path d="M154.316 207.829C153.088 207.829 151.751 207.566 150.327 207.04C146.667 205.659 141.846 202.131 139.304 196.28C139.172 195.951 139.304 195.578 139.632 195.447C139.961 195.315 140.334 195.447 140.465 195.776C142.832 201.254 147.325 204.564 150.765 205.835C153.023 206.668 155.105 206.777 156.507 206.098C160.452 204.213 161.57 199.348 161.591 199.304C161.657 198.953 162.008 198.734 162.359 198.822C162.709 198.888 162.928 199.238 162.841 199.589C162.797 199.808 161.591 205.112 157.077 207.259C156.266 207.632 155.346 207.829 154.316 207.829Z" fill="#22273F"/>
<path d="M144.519 183.7C144.519 183.7 149.516 168.951 163.629 182.473C177.414 195.688 170.204 210.349 160.298 200.926C156.595 197.397 154.447 194.636 153.242 192.576" fill="white"/>
<path d="M166.259 204.565C164.462 204.565 162.271 203.688 159.838 201.387C156.573 198.275 154.162 195.426 152.672 192.906C152.496 192.599 152.584 192.205 152.891 192.029C153.198 191.854 153.592 191.942 153.768 192.249C155.192 194.659 157.537 197.421 160.715 200.467C163.914 203.513 167.092 204.149 169.021 202.11C171.848 199.152 171.388 190.824 163.169 182.935C158.633 178.573 154.622 176.776 151.291 177.587C146.952 178.639 145.133 183.855 145.111 183.899C145.001 184.228 144.629 184.403 144.3 184.293C143.971 184.184 143.796 183.811 143.906 183.482C143.993 183.241 145.966 177.565 150.984 176.338C154.776 175.396 159.181 177.324 164.068 181.992C172.439 190.013 173.645 199.13 169.963 202.965C169.064 203.929 167.815 204.565 166.259 204.565Z" fill="#22273F"/>
<path d="M142.744 212.586C138.339 212.586 135.096 209.671 132.137 203.162C129.748 197.924 132.926 194.812 135.052 193.41C135.819 192.906 136.279 192.117 136.323 191.284C136.498 185.98 143.993 183.219 144.322 183.088C144.651 182.978 145.023 183.131 145.133 183.482C145.243 183.811 145.089 184.183 144.739 184.293C144.673 184.315 137.748 186.879 137.594 191.328C137.55 192.555 136.871 193.738 135.753 194.462C133.584 195.886 131.414 198.45 133.299 202.614C136.433 209.496 139.676 211.95 144.476 211.117C147.149 210.657 148.705 208.093 149.56 206.011C149.691 205.682 150.064 205.529 150.393 205.66C150.721 205.792 150.875 206.164 150.743 206.493C149.779 208.86 147.938 211.819 144.695 212.388C144.015 212.52 143.38 212.564 142.744 212.586Z" fill="#22273F"/>
<path d="M282.937 466.302C282.937 466.302 294.793 383.681 298.716 367.836L282.937 466.302Z" fill="white"/>
<path d="M282.937 466.937C282.915 466.937 282.871 466.937 282.849 466.937C282.498 466.893 282.257 466.564 282.301 466.214C282.411 465.381 294.201 383.374 298.102 367.682C298.19 367.331 298.54 367.134 298.869 367.222C299.22 367.31 299.417 367.66 299.329 367.989C295.45 383.615 283.682 465.556 283.572 466.389C283.506 466.718 283.243 466.937 282.937 466.937Z" fill="#22273F"/>
<path d="M158.37 266.369L147.434 469.305C147.127 475.113 151.576 479.824 157.384 479.824H300.863C306.671 479.824 311.646 475.113 311.953 469.305L322.888 266.369C323.195 260.561 318.746 255.85 312.939 255.85H169.459C163.652 255.85 158.677 260.561 158.37 266.369Z" fill="#E9EAEF"/>
<path d="M151.203 266.369L140.268 469.305C139.961 475.113 144.41 479.824 150.217 479.824H293.697C299.505 479.824 304.479 475.113 304.786 469.305L315.722 266.369C316.029 260.561 311.58 255.85 305.772 255.85H162.293C156.485 255.85 151.51 260.561 151.203 266.369Z" fill="#F0F0F2"/>
<path d="M293.697 480.459H150.239C147.259 480.459 144.497 479.297 142.503 477.193C140.487 475.068 139.479 472.262 139.632 469.282L150.568 266.346C150.897 260.21 156.156 255.213 162.293 255.213H305.772C308.753 255.213 311.514 256.374 313.508 258.478C315.525 260.604 316.533 263.409 316.379 266.412L305.444 469.348C305.093 475.484 299.833 480.459 293.697 480.459ZM151.839 266.412L140.903 469.348C140.75 471.978 141.648 474.454 143.424 476.317C145.177 478.18 147.587 479.188 150.217 479.188H293.697C299.154 479.188 303.844 474.739 304.151 469.26L315.086 266.324C315.24 263.694 314.341 261.218 312.566 259.355C310.813 257.492 308.38 256.484 305.75 256.484H162.293C156.814 256.484 152.146 260.933 151.839 266.412Z" fill="#22273F"/>
<path d="M293.697 469.653C294.091 469.653 294.596 469.171 294.617 468.755L305.444 267.55C305.487 266.717 304.83 266.016 303.997 266.016H162.271C161.876 266.016 161.372 266.498 161.35 266.914L150.524 468.119C150.48 468.952 151.138 469.653 151.97 469.653H293.697Z" fill="white"/>
<path d="M111.405 462.445C134 416.773 148.004 352.211 156.704 273.469H297.795C289.095 352.232 275.091 416.773 252.496 462.445H111.405Z" fill="white"/>
<path d="M252.474 463.101H111.405C111.186 463.101 110.967 462.991 110.857 462.794C110.748 462.597 110.726 462.377 110.835 462.18C131.962 419.467 146.755 357.71 156.069 273.423C156.113 273.095 156.376 272.854 156.704 272.854H297.795C297.971 272.854 298.146 272.919 298.277 273.073C298.409 273.226 298.453 273.379 298.431 273.577C289.117 358.017 274.28 419.884 253.066 462.772C252.956 462.947 252.715 463.101 252.474 463.101ZM112.435 461.808H252.102C273.075 419.204 287.802 357.797 297.072 274.103H157.274C148.004 357.666 133.343 419.095 112.435 461.808Z" fill="#22273F"/>
<rect x="168" y="293.002" width="13" height="13" rx="6" fill="#E3E3E5"/>
<path d="M177.35 296.846C177.574 296.7 177.885 296.724 178.081 296.918L178.155 297.009C178.281 297.201 178.281 297.457 178.155 297.649L178.081 297.74L173.701 302.088C173.592 302.196 173.435 302.252 173.296 302.252C173.175 302.252 173.064 302.216 172.969 302.151L172.879 302.077L170.919 300.131C170.694 299.908 170.694 299.532 170.919 299.309L171.009 299.236C171.233 299.091 171.546 299.114 171.741 299.309L173.296 300.852L177.259 296.918L177.35 296.846Z" fill="#019F53" stroke="#019F53" stroke-width="0.5"/>
<path d="M189.933 299.822C189.933 301.808 191.695 303.415 193.873 303.415H255.807C257.985 303.415 259.747 301.808 259.747 299.822C259.747 297.835 257.985 296.229 255.807 296.229H193.873C191.695 296.229 189.933 297.835 189.933 299.822Z" fill="#E3E3E5"/>
<rect x="167" y="311.002" width="13" height="13" rx="6" fill="#E3E3E5"/>
<path d="M176.35 314.846C176.574 314.7 176.885 314.724 177.081 314.918L177.155 315.009C177.281 315.201 177.281 315.457 177.155 315.649L177.081 315.74L172.701 320.088C172.592 320.196 172.435 320.252 172.296 320.252C172.175 320.252 172.064 320.216 171.969 320.151L171.879 320.077L169.919 318.131C169.694 317.908 169.694 317.532 169.919 317.309L170.009 317.236C170.233 317.091 170.546 317.114 170.741 317.309L172.296 318.852L176.259 314.918L176.35 314.846Z" fill="#019F53" stroke="#019F53" stroke-width="0.5"/>
<path d="M188.907 318.302C188.907 320.289 190.669 321.896 192.846 321.896H254.78C256.958 321.896 258.72 320.289 258.72 318.302C258.72 316.316 256.958 314.709 254.78 314.709H192.846C190.669 314.709 188.907 316.316 188.907 318.302Z" fill="#E3E3E5"/>
<rect x="164" y="329.002" width="13" height="13" rx="6" fill="#E3E3E5"/>
<path d="M173.35 332.846C173.574 332.7 173.885 332.724 174.081 332.918L174.155 333.009C174.281 333.201 174.281 333.457 174.155 333.649L174.081 333.74L169.701 338.088C169.592 338.196 169.435 338.252 169.296 338.252C169.175 338.252 169.064 338.216 168.969 338.151L168.879 338.077L166.919 336.131C166.694 335.908 166.694 335.532 166.919 335.309L167.009 335.236C167.233 335.091 167.546 335.114 167.741 335.309L169.296 336.852L173.259 332.918L173.35 332.846Z" fill="#019F53" stroke="#019F53" stroke-width="0.5"/>
<path d="M185.827 336.783C185.827 338.769 187.589 340.376 189.766 340.376H251.7C253.878 340.376 255.64 338.769 255.64 336.783C255.64 334.796 253.878 333.189 251.7 333.189H189.766C187.589 333.189 185.827 334.796 185.827 336.783Z" fill="#E3E3E5"/>
<path d="M145.308 447.234C145.242 447.234 145.155 447.212 145.089 447.19C144.76 447.058 144.585 446.708 144.717 446.357C154.337 420.431 162.665 389.531 169.459 354.51C169.525 354.159 169.853 353.94 170.204 354.006C170.555 354.072 170.774 354.4 170.708 354.751C163.892 389.837 155.543 420.826 145.9 446.817C145.812 447.08 145.571 447.234 145.308 447.234Z" fill="#E3E3E5"/>
<path d="M167.706 447.234C167.64 447.234 167.552 447.212 167.487 447.19C167.158 447.058 166.982 446.708 167.114 446.357C176.713 420.453 185.041 389.552 191.834 354.51C191.9 354.159 192.229 353.94 192.58 354.006C192.93 354.072 193.149 354.4 193.084 354.751C186.268 389.837 177.918 420.804 168.275 446.817C168.21 447.08 167.947 447.234 167.706 447.234Z" fill="#E3E3E5"/>
<path d="M190.081 447.234C190.016 447.234 189.928 447.212 189.862 447.19C189.534 447.058 189.358 446.708 189.49 446.357C199.111 420.431 207.438 389.531 214.232 354.51C214.298 354.159 214.627 353.94 214.977 354.006C215.328 354.072 215.547 354.4 215.481 354.751C208.666 389.837 200.316 420.826 190.673 446.817C190.585 447.08 190.344 447.234 190.081 447.234Z" fill="#E3E3E5"/>
<path d="M268.626 365.074H158.348C157.997 365.074 157.712 364.789 157.712 364.438C157.712 364.088 157.997 363.803 158.348 363.803H268.648C268.999 363.803 269.283 364.088 269.283 364.438C269.262 364.789 268.999 365.074 268.626 365.074Z" fill="#E3E3E5"/>
<path d="M263.366 383.175H153.461C153.11 383.175 152.825 382.89 152.825 382.54C152.825 382.189 153.11 381.904 153.461 381.904H263.366C263.717 381.904 264.002 382.189 264.002 382.54C264.002 382.89 263.717 383.175 263.366 383.175Z" fill="#E3E3E5"/>
<path d="M252.913 419.357H143.599C143.248 419.357 142.963 419.072 142.963 418.721C142.963 418.371 143.248 418.086 143.599 418.086H252.913C253.263 418.086 253.548 418.371 253.548 418.721C253.548 419.072 253.263 419.357 252.913 419.357Z" fill="#E3E3E5"/>
<path d="M257.997 401.255H148.683C148.333 401.255 148.048 400.971 148.048 400.62C148.048 400.269 148.333 399.984 148.683 399.984H257.997C258.348 399.984 258.633 400.269 258.633 400.62C258.633 400.971 258.348 401.255 257.997 401.255Z" fill="#E3E3E5"/>
<path d="M247.368 437.437H139.019C138.668 437.437 138.383 437.152 138.383 436.802C138.383 436.451 138.668 436.166 139.019 436.166H247.368C247.719 436.166 248.004 436.451 248.004 436.802C248.004 437.152 247.719 437.437 247.368 437.437Z" fill="#E3E3E5"/>
<path d="M233.539 447.235C233.452 447.235 233.364 447.213 233.276 447.191C232.948 447.06 232.794 446.665 232.948 446.359C243.642 421.594 252.847 390.694 260.276 354.533C260.342 354.183 260.693 353.963 261.021 354.029C261.372 354.095 261.591 354.446 261.525 354.774C253.965 391.548 245.001 421.66 234.109 446.863C234.022 447.104 233.802 447.235 233.539 447.235Z" fill="#E3E3E5"/>
<path d="M211.164 447.235C211.076 447.235 210.989 447.213 210.901 447.191C210.572 447.06 210.419 446.665 210.572 446.359C221.267 421.594 230.471 390.694 237.901 354.533C237.966 354.183 238.317 353.963 238.668 354.029C239.018 354.095 239.237 354.446 239.172 354.774C231.611 391.548 222.648 421.66 211.756 446.863C211.646 447.104 211.405 447.235 211.164 447.235Z" fill="#E3E3E5"/>
<path d="M232.794 362.839L259.684 360.011C261.043 359.858 262.161 361.041 261.942 362.378L257.646 389.071C257.383 390.759 255.279 391.394 254.118 390.167L231.545 366.323C230.34 365.074 231.107 363.014 232.794 362.839Z" fill="#019F53"/>
<path d="M202.047 405.42C206.036 412.214 211.12 418.394 217.278 423.566L222.143 427.818C197.927 436.189 171.848 439.389 146.031 437.811C145.44 437.767 144.979 437.285 144.979 436.671C144.979 436.058 145.484 435.576 146.075 435.576C157.537 435.444 168.977 434.392 180.11 432.376C189.577 430.667 198.869 428.256 207.789 425.078C199.921 417.934 193.807 409.058 189.117 399.766C199.812 396.72 210.441 392.512 219.492 386.639C227.14 381.773 233.934 375.9 239.413 369.26L252.365 380.853C238.295 393.41 220.675 401.607 202.047 405.42Z" fill="#019F53"/>
<path d="M204.589 260.057C203.669 265.82 207.592 270.488 213.333 270.488H241.714C247.478 270.488 252.891 265.82 253.811 260.057C254.732 254.293 250.809 249.625 245.067 249.625H216.687C210.923 249.647 205.51 254.315 204.589 260.057Z" fill="#E3E3E5"/>
<path d="M241.714 271.123H213.333C210.375 271.123 207.789 269.983 205.992 267.879C204.195 265.754 203.45 262.948 203.932 259.946C204.896 253.897 210.616 248.988 216.665 248.988H245.045C248.003 248.988 250.59 250.128 252.387 252.232C254.184 254.358 254.929 257.163 254.447 260.165C253.46 266.214 247.762 271.123 241.714 271.123ZM216.686 250.281C211.23 250.281 206.101 254.708 205.225 260.165C204.808 262.795 205.422 265.228 207 267.068C208.534 268.865 210.791 269.852 213.355 269.852H241.736C247.193 269.852 252.321 265.425 253.197 259.968C253.614 257.338 253 254.884 251.422 253.065C249.888 251.267 247.631 250.281 245.067 250.281H216.686Z" fill="#22273F"/>
<path d="M248.376 260.057H255.477C261.24 260.057 265.163 264.725 264.221 270.488C263.301 276.252 257.887 280.92 252.124 280.92H199.549C193.785 280.92 189.862 276.252 190.805 270.488C191.725 264.725 197.138 260.057 202.902 260.057H221.376" fill="#E3E3E5"/>
<path d="M252.146 281.554H199.549C196.59 281.554 194.004 280.415 192.207 278.311C190.41 276.185 189.665 273.38 190.147 270.378C191.111 264.329 196.831 259.42 202.88 259.42H221.355C221.705 259.42 221.99 259.705 221.99 260.055C221.99 260.406 221.705 260.691 221.355 260.691H202.88C197.423 260.691 192.295 265.118 191.418 270.575C191.002 273.205 191.615 275.659 193.193 277.478C194.727 279.275 196.985 280.261 199.549 280.261H252.124C257.581 280.261 262.709 275.835 263.585 270.378C264.002 267.748 263.388 265.293 261.81 263.474C260.276 261.677 258.019 260.691 255.455 260.691H248.376C248.026 260.691 247.741 260.406 247.741 260.055C247.741 259.705 248.026 259.42 248.376 259.42H255.477C258.435 259.42 261.021 260.56 262.796 262.663C264.594 264.789 265.339 267.594 264.856 270.597C263.892 276.645 258.194 281.554 252.146 281.554Z" fill="#22273F"/>
<path d="M355.696 242.021L374.17 220.391C374.17 220.391 414.363 225.234 432.553 241.32C458.632 264.353 465.316 315.92 465.316 315.92L403.997 340.355L398.847 295.1" fill="#1E2321"/>
<path d="M403.953 340.991C403.844 340.991 403.734 340.969 403.625 340.903C403.449 340.794 403.34 340.618 403.318 340.421L398.168 295.166C398.124 294.815 398.387 294.487 398.737 294.465C399.088 294.421 399.417 294.684 399.439 295.034L404.501 339.457L464.593 315.503C463.826 310.178 456.375 263.213 432.114 241.802C415.174 226.834 378.356 221.596 374.433 221.07L356.178 242.438C355.937 242.701 355.542 242.744 355.279 242.503C355.016 242.262 354.972 241.868 355.214 241.605L373.688 219.974C373.82 219.821 374.039 219.733 374.258 219.755C374.652 219.799 414.845 224.818 432.969 240.838C458.939 263.783 465.864 315.306 465.93 315.832C465.974 316.117 465.798 316.402 465.535 316.512L404.194 340.925C404.129 340.969 404.041 340.991 403.953 340.991Z" fill="#22273F"/>
<path d="M340.662 168.758C340.662 168.758 345.658 189.862 353.723 204.589C361.569 218.944 374.17 220.39 374.17 220.39C374.17 220.39 360.846 254.491 334.131 254.491C307.416 254.491 302.573 229.441 302.573 229.441C306.386 227.14 310.616 225.058 315.152 223.152C315.152 223.152 307.372 212.676 306.912 204.239C306.452 195.801 340.662 168.758 340.662 168.758Z" fill="white"/>
<path d="M334.109 255.127C307.175 255.127 301.981 229.815 301.937 229.552C301.893 229.289 302.003 229.026 302.244 228.873C305.729 226.769 309.739 224.753 314.166 222.868C312.435 220.414 306.693 211.669 306.276 204.262C305.794 195.583 338.865 169.351 340.267 168.255C340.442 168.124 340.662 168.08 340.881 168.145C341.078 168.211 341.253 168.387 341.297 168.606C341.341 168.825 346.36 189.798 354.293 204.284C361.898 218.178 374.126 219.734 374.258 219.756C374.455 219.778 374.63 219.888 374.74 220.063C374.85 220.238 374.871 220.435 374.784 220.633C374.63 220.961 360.955 255.127 334.109 255.127ZM303.296 229.749C304.085 233.146 309.871 253.856 334.131 253.856C357.931 253.856 371.146 225.827 373.272 220.896C370.269 220.304 360.013 217.433 353.153 204.897C346.119 192.055 341.363 174.216 340.267 169.877C330.318 177.81 307.175 197.731 307.526 204.196C307.986 212.349 315.569 222.671 315.656 222.758C315.766 222.912 315.81 223.131 315.766 223.306C315.722 223.504 315.569 223.657 315.393 223.723C310.901 225.629 306.824 227.646 303.296 229.749Z" fill="#22273F"/>
<path d="M315.152 223.148C315.152 223.148 318.549 227.532 322.275 231.016L315.152 223.148Z" fill="white"/>
<path d="M322.253 231.652C322.1 231.652 321.946 231.586 321.815 231.476C318.111 227.992 314.67 223.587 314.626 223.543C314.407 223.258 314.451 222.864 314.736 222.644C315.021 222.425 315.415 222.469 315.634 222.754C315.678 222.798 319.053 227.137 322.691 230.556C322.954 230.797 322.954 231.213 322.713 231.454C322.604 231.586 322.428 231.652 322.253 231.652Z" fill="#22273F"/>
<path d="M276.033 186.266C276.428 200.511 284.821 207.743 298.431 207.677C312.04 207.611 324.861 200.313 324.861 200.313L340.947 181.094C340.947 181.094 344.431 142.851 336.081 134.721C307.087 106.516 289.774 127.489 289.774 127.489C289.774 127.489 285.786 132.069 283.77 142.347C283.704 142.654 283.638 142.961 283.594 143.268C283.485 143.881 283.375 144.517 283.309 145.174C283.265 145.459 283.222 145.722 283.178 146.007C283.003 147.344 282.871 148.747 282.761 150.215C281.753 166.104 275.617 172.021 276.033 186.266Z" fill="white"/>
<path d="M282.433 121.967C282.827 130.777 295.692 129.221 295.692 129.221C304.721 141.406 316.314 141.801 321.574 139.894C322.691 142.239 325.102 144.211 328.192 145C329.507 145.329 330.822 145.438 332.071 145.307C331.83 146.688 331.677 148.266 331.764 150.019C332.071 156.659 341.604 160.407 341.604 160.407L341.867 171.255C342.963 180.087 347.149 189.839 347.149 189.839C360.145 181.884 361.131 167.661 361.481 161.064C363.541 159.267 365.295 155.848 365.01 149.361C364.966 148.441 364.856 147.564 364.703 146.731C364.878 146.666 365.054 146.578 365.229 146.49C370.861 143.707 372.636 135.752 369.152 128.739C366.916 124.224 363.037 121.2 359.071 120.367C359.027 112.828 352.474 105.64 343.094 103.493C335.731 101.805 328.586 103.668 324.225 107.832C321.376 106.363 318.22 105.728 314.758 105.881C304.786 106.32 298.869 114.1 298.869 114.1C290.322 109.936 282.038 113.179 282.433 121.967Z" fill="#22273F"/>
<path d="M347.149 190.474C347.083 190.474 347.017 190.474 346.951 190.452C346.776 190.386 346.623 190.255 346.557 190.101C346.513 189.992 342.327 180.174 341.232 171.364L340.969 160.866C339.084 160.055 331.414 156.33 331.129 150.062C331.063 148.681 331.129 147.323 331.304 146.008C330.23 146.03 329.112 145.92 328.039 145.635C325.08 144.89 322.582 143.049 321.267 140.704C315.963 142.326 304.523 141.997 295.385 129.922C293.807 130.053 287.802 130.36 284.317 127.38C282.74 126.043 281.885 124.246 281.797 122.032C281.622 118.197 283.046 115.107 285.764 113.31C289.095 111.119 293.894 111.14 298.694 113.354C300.096 111.71 305.794 105.683 314.736 105.289C318.155 105.136 321.311 105.749 324.116 107.108C328.784 102.878 336.06 101.279 343.226 102.922C352.518 105.048 359.356 112.149 359.684 119.907C363.804 120.937 367.53 124.136 369.722 128.497C371.716 132.508 372.11 136.979 370.839 140.77C369.875 143.619 367.968 145.876 365.514 147.104C365.492 147.125 365.448 147.125 365.426 147.147C365.558 147.871 365.623 148.638 365.667 149.383C365.908 154.971 364.725 159.004 362.117 161.414C361.766 167.835 360.802 182.278 347.477 190.43C347.368 190.452 347.258 190.474 347.149 190.474ZM332.071 144.649C332.246 144.649 332.422 144.715 332.531 144.846C332.663 145 332.728 145.197 332.685 145.394C332.422 146.884 332.312 148.418 332.378 149.974C332.663 156.133 341.714 159.771 341.801 159.792C342.042 159.88 342.196 160.121 342.196 160.384L342.459 171.232C343.379 178.486 346.447 186.507 347.39 188.874C359.706 180.897 360.451 167.003 360.78 161.02C360.78 160.844 360.868 160.691 360.999 160.581C363.432 158.478 364.55 154.708 364.308 149.405C364.265 148.528 364.155 147.673 364.002 146.862C363.936 146.578 364.089 146.271 364.374 146.161C364.55 146.095 364.703 146.008 364.878 145.942C367.07 144.846 368.692 142.918 369.568 140.354C370.73 136.891 370.357 132.771 368.516 129.067C366.434 124.859 362.818 121.857 358.873 121.046C358.589 120.98 358.369 120.717 358.369 120.433C358.326 113.069 351.817 106.231 342.897 104.171C335.972 102.572 328.981 104.171 324.62 108.335C324.423 108.532 324.116 108.554 323.875 108.445C321.179 107.042 318.111 106.429 314.736 106.582C305.159 107.02 299.373 114.472 299.329 114.559C299.154 114.8 298.825 114.888 298.541 114.756C294.004 112.543 289.489 112.412 286.421 114.428C284.076 115.962 282.871 118.657 283.024 122.01C283.112 123.851 283.813 125.363 285.084 126.437C288.613 129.44 295.494 128.651 295.56 128.651C295.779 128.629 296.02 128.717 296.152 128.914C305.181 141.099 316.555 141.077 321.311 139.367C321.617 139.258 321.968 139.389 322.099 139.696C323.173 141.953 325.496 143.729 328.302 144.452C329.529 144.759 330.756 144.868 331.961 144.737C332.027 144.649 332.049 144.649 332.071 144.649Z" fill="#22273F"/>
<path d="M298.234 208.335C283.901 208.335 275.792 200.511 275.398 186.31C275.179 178.705 276.8 173.445 278.532 167.857C280.088 162.838 281.666 157.666 282.148 150.215C282.257 148.462 282.433 146.731 282.674 145.109C282.805 144.123 282.981 143.158 283.156 142.238C285.172 131.916 289.139 127.27 289.314 127.073C289.555 126.81 289.95 126.788 290.213 127.007C290.476 127.226 290.498 127.642 290.278 127.905C290.235 127.949 286.377 132.508 284.427 142.479C284.252 143.378 284.098 144.32 283.967 145.284C283.726 146.884 283.572 148.55 283.463 150.281C282.981 157.864 281.359 163.123 279.781 168.208C278.093 173.687 276.494 178.837 276.713 186.244C277.085 199.656 284.756 207.042 298.277 207.042C298.343 207.042 298.409 207.042 298.453 207.042C311.734 206.976 324.444 199.832 324.576 199.766C324.883 199.59 325.277 199.7 325.452 200.007C325.628 200.314 325.518 200.708 325.211 200.883C325.08 200.949 312.084 208.269 298.475 208.335C298.365 208.335 298.299 208.335 298.234 208.335Z" fill="#22273F"/>
<path d="M303.603 147.673C307.986 149.053 311.843 150.85 315.941 152.932C316.379 153.151 316.84 152.691 316.599 152.275C314.166 148.001 308.38 145.415 303.581 146.752C303.143 146.862 303.143 147.519 303.603 147.673Z" fill="#22273F"/>
<path d="M283.178 146.028C284.909 146.138 286.662 146.291 288.481 146.467C288.963 146.511 289.248 145.919 288.876 145.634C287.407 144.429 285.545 143.64 283.594 143.289C283.485 143.903 283.375 144.538 283.309 145.196C283.265 145.481 283.2 145.765 283.178 146.028Z" fill="#22273F"/>
<path d="M293.368 175.901C293.347 175.901 293.347 175.901 293.325 175.901C285.961 175.375 282.257 173.227 282.323 169.502C282.367 167.398 284.12 165.579 286.158 163.453C287.977 161.568 290.015 159.442 291.418 156.637C293.522 152.43 293.018 145.636 293.018 145.57C292.996 145.219 293.259 144.913 293.61 144.891C293.96 144.891 294.267 145.132 294.289 145.482C294.311 145.767 294.815 152.692 292.579 157.207C291.089 160.188 288.985 162.401 287.101 164.33C285.172 166.324 283.66 167.902 283.616 169.502C283.55 172.416 286.86 174.148 293.434 174.608C293.785 174.63 294.048 174.937 294.026 175.287C293.982 175.638 293.697 175.901 293.368 175.901Z" fill="#22273F"/>
<path d="M283.529 158.479C283.244 159.816 283.594 161.043 284.361 161.218C285.106 161.394 285.961 160.429 286.246 159.092C286.553 157.734 286.18 156.506 285.435 156.353C284.668 156.178 283.835 157.12 283.529 158.479Z" fill="#22273F"/>
<path d="M301.85 161.502C301.521 162.992 302.003 164.351 302.902 164.57C303.8 164.789 304.808 163.737 305.137 162.247C305.466 160.756 305.005 159.376 304.107 159.178C303.186 158.981 302.178 160.011 301.85 161.502Z" fill="#22273F"/>
<path d="M294.683 187.429C292.426 187.429 289.993 185.238 289.84 180.351C289.84 180.109 289.95 179.89 290.147 179.781C290.344 179.671 290.607 179.671 290.804 179.781C294.289 181.819 298.168 179.737 298.212 179.715C298.409 179.605 298.65 179.605 298.847 179.715C299.045 179.825 299.154 180.022 299.176 180.263C299.329 185.106 297.006 187.385 294.815 187.451C294.771 187.429 294.727 187.429 294.683 187.429ZM291.221 181.402C291.615 184.58 293.215 186.224 294.771 186.158C296.239 186.114 297.752 184.558 297.905 181.271C296.524 181.797 293.894 182.476 291.221 181.402Z" fill="#22273F"/>
<path d="M334.854 163.673C334.854 163.673 339.675 151.29 349.603 154.424C359.531 157.558 355.542 170.203 351.641 174.214C348.113 177.874 344.387 179.978 340.399 180.131" fill="white"/>
<path d="M340.399 180.769C340.048 180.769 339.785 180.506 339.763 180.155C339.741 179.805 340.026 179.498 340.377 179.498C344.08 179.345 347.631 177.482 351.181 173.778C353.46 171.411 356.09 165.341 354.885 160.563C354.183 157.824 352.343 155.961 349.406 155.04C340.158 152.126 335.621 163.434 335.446 163.916C335.314 164.245 334.942 164.42 334.613 164.289C334.284 164.157 334.109 163.785 334.24 163.456C334.284 163.324 339.391 150.548 349.778 153.813C353.131 154.865 355.301 157.079 356.112 160.234C357.471 165.538 354.644 172.025 352.101 174.655C348.354 178.556 344.409 180.594 340.421 180.769H340.399Z" fill="#22273F"/>
<path d="M337.396 170.334C337.352 170.334 337.287 170.334 337.243 170.312C336.892 170.225 336.695 169.874 336.783 169.545C338.887 160.998 347.938 160.713 348.025 160.691C348.398 160.713 348.661 160.954 348.683 161.305C348.683 161.656 348.42 161.962 348.069 161.962C347.74 161.962 339.917 162.247 338.032 169.83C337.944 170.137 337.703 170.334 337.396 170.334Z" fill="#22273F"/>
<path d="M348.091 169.828C347.916 169.828 347.718 169.762 347.609 169.609C343.686 164.985 339.215 166.957 339.018 167.045C338.689 167.198 338.317 167.045 338.163 166.738C338.01 166.409 338.163 166.037 338.47 165.883C338.536 165.861 343.993 163.407 348.573 168.776C348.814 169.039 348.77 169.456 348.507 169.675C348.376 169.784 348.222 169.828 348.091 169.828Z" fill="#22273F"/>
<path d="M293.434 403.729C283.923 403.729 259.903 391.435 255.542 385.912C252.452 381.989 256.879 378.614 263.782 379.118C271.058 379.644 294.749 390.186 294.749 390.186" fill="white"/>
<path d="M293.434 404.367C283.572 404.367 259.29 391.678 255.038 386.287C253.833 384.753 253.57 383.131 254.315 381.729C255.542 379.406 259.268 378.135 263.826 378.463C271.124 378.989 294.026 389.158 294.99 389.596C295.319 389.75 295.45 390.122 295.319 390.451C295.165 390.78 294.793 390.911 294.464 390.78C294.223 390.67 270.817 380.282 263.717 379.756C259.136 379.428 256.244 380.808 255.433 382.342C254.797 383.526 255.411 384.709 256.025 385.498C260.145 390.736 283.791 403.074 293.412 403.074C293.763 403.074 294.048 403.359 294.048 403.71C294.07 404.082 293.785 404.367 293.434 404.367Z" fill="#22273F"/>
<path d="M282.148 405.925C272.636 405.925 248.617 393.63 244.256 388.108C241.166 384.185 245.593 380.81 252.496 381.314C256.726 381.621 266.456 385.302 273.886 388.327" fill="white"/>
<path d="M282.148 406.561C272.286 406.561 248.004 393.872 243.752 388.481C242.547 386.946 242.284 385.325 243.029 383.922C244.256 381.599 248.004 380.328 252.54 380.657C256.857 380.964 266.653 384.667 274.127 387.713C274.455 387.845 274.609 388.218 274.477 388.546C274.346 388.875 273.973 389.028 273.644 388.897C263.059 384.58 255.718 382.169 252.452 381.928C247.872 381.599 244.979 382.98 244.168 384.514C243.533 385.697 244.146 386.881 244.76 387.67C248.88 392.907 272.527 405.246 282.148 405.246C282.498 405.246 282.783 405.531 282.783 405.881C282.783 406.276 282.498 406.561 282.148 406.561Z" fill="#22273F"/>
<path d="M271.804 409.585C262.292 409.585 238.273 397.29 233.912 391.768C230.822 387.845 235.249 384.47 242.152 384.974C247.083 385.325 259.465 390.256 267.004 393.411" fill="white"/>
<path d="M271.804 410.242C261.942 410.242 237.66 397.553 233.408 392.162C232.203 390.628 231.94 389.006 232.685 387.604C233.912 385.281 237.66 384.01 242.196 384.338C247.017 384.689 258.479 389.16 267.245 392.842C267.574 392.973 267.727 393.346 267.596 393.674C267.464 394.003 267.092 394.156 266.763 394.025C259.663 391.044 246.995 385.982 242.108 385.631C237.528 385.303 234.635 386.683 233.824 388.217C233.189 389.401 233.802 390.584 234.416 391.373C238.536 396.611 262.183 408.949 271.804 408.949C272.154 408.949 272.439 409.234 272.439 409.585C272.461 409.957 272.176 410.242 271.804 410.242Z" fill="#22273F"/>
<path d="M409.673 391.198L403.953 340.332L465.272 315.896C465.272 315.896 487.319 423.61 452.781 440.047C409.98 460.428 328.192 407.744 321.179 407.744C314.166 407.744 282.674 416.619 273.162 416.619C263.651 416.619 239.632 404.325 235.271 398.802C232.181 394.879 236.608 391.504 243.511 392.008C250.787 392.534 270.094 400.928 270.094 400.928L302.682 384.645L409.673 391.198Z" fill="white"/>
<path d="M429.397 445.395C397.072 445.395 357.164 425.562 335.643 414.867C328.367 411.251 322.625 408.402 321.201 408.402C318.045 408.402 309.542 410.309 300.535 412.325C289.643 414.758 278.356 417.3 273.184 417.3C263.322 417.3 239.04 404.611 234.789 399.22C233.583 397.686 233.32 396.064 234.065 394.661C235.293 392.338 239.018 391.067 243.577 391.396C250.502 391.9 267.618 399.176 270.072 400.25L302.375 384.098C302.485 384.054 302.595 384.032 302.704 384.032L408.928 390.541L403.296 340.443C403.252 340.158 403.427 339.873 403.69 339.785L465.009 315.35C465.185 315.284 465.382 315.284 465.557 315.372C465.732 315.459 465.842 315.613 465.886 315.81C465.952 316.073 471.43 343.116 472.614 371.825C474.214 410.572 467.639 433.736 453.043 440.683C446.052 443.993 437.988 445.395 429.397 445.395ZM321.201 407.109C322.844 407.109 327.227 409.257 336.213 413.706C363.278 427.162 419.623 455.148 452.539 439.478C484.733 424.137 466.675 326.373 464.834 316.774L404.654 340.749L410.309 391.111C410.33 391.308 410.265 391.484 410.133 391.615C410.002 391.746 409.826 391.812 409.629 391.812L302.814 385.281L270.379 401.499C270.204 401.586 270.007 401.586 269.831 401.521C269.634 401.433 250.568 393.171 243.467 392.667C238.865 392.338 235.994 393.719 235.183 395.253C234.547 396.436 235.161 397.62 235.775 398.409C239.895 403.647 263.541 415.985 273.162 415.985C278.203 415.985 289.906 413.355 300.25 411.054C309.345 409.038 317.892 407.109 321.201 407.109Z" fill="#22273F"/>
<path d="M301.214 393.389C301.214 393.389 280.723 406.319 273.382 406.319C266.04 406.319 267.727 400.029 271.256 396.742C275.31 392.973 301.718 370.334 317.563 370.334C333.408 370.334 338.624 378.53 346.842 380.7C365.295 385.543 409.914 391.373 432.29 394.112" fill="white"/>
<path d="M273.381 406.954C269.722 406.954 268.385 405.464 267.881 404.214C266.895 401.694 268.604 398.319 270.817 396.259C271.102 395.996 300.184 369.676 317.563 369.676C328.038 369.676 333.89 373.16 339.04 376.25C341.692 377.828 344.212 379.319 346.995 380.064C365.141 384.819 408.27 390.495 432.355 393.476C432.706 393.52 432.947 393.848 432.903 394.199C432.859 394.55 432.531 394.813 432.18 394.747C408.051 391.788 364.878 386.09 346.645 381.313C343.686 380.524 341.1 378.99 338.36 377.368C333.342 374.366 327.644 370.991 317.541 370.991C300.644 370.991 271.957 396.96 271.672 397.223C269.502 399.24 268.385 402.067 269.042 403.776C269.678 405.376 271.738 405.705 273.338 405.705C280.416 405.705 300.622 392.994 300.82 392.862C301.126 392.665 301.521 392.775 301.696 393.059C301.893 393.366 301.784 393.761 301.499 393.936C300.71 394.462 280.833 406.954 273.381 406.954Z" fill="#22273F"/>
<path d="M69.3829 105.379L75.9772 112.013C78.1296 114.165 80.6538 116.043 83.5302 117.511C100.026 125.984 121.883 118.587 132.351 100.996C140.981 86.4573 139.161 69.5313 128.966 59.317L122.372 52.6836C132.547 62.9174 134.386 79.8434 125.757 94.3626C115.288 111.954 93.4314 119.35 76.936 110.878C74.0595 109.41 71.5353 107.551 69.3829 105.379Z" fill="#E9EAEF"/>
<path d="M114.819 47.167C98.3235 38.6943 76.486 46.0908 66.0173 63.7017C55.5487 81.2929 60.4602 102.426 76.9556 110.879C93.4511 119.352 115.308 111.955 125.777 94.3641C136.226 76.7728 131.314 55.6398 114.819 47.167Z" fill="white"/>
<path d="M91.7096 114.948C104.996 114.948 118.635 107.473 126.246 94.6561C131.667 85.5376 133.212 74.9319 130.512 65.5591C128.125 57.2624 122.646 50.5507 115.073 46.6763C98.343 38.0862 76.1142 45.6001 65.5086 63.4262C60.0884 72.5447 58.5425 83.1503 61.2233 92.5428C63.6105 100.839 69.0895 107.532 76.6621 111.425C81.3779 113.813 86.5242 114.948 91.7096 114.948ZM100.045 44.2499C105.055 44.2499 110.025 45.3457 114.565 47.6743C121.863 51.4117 127.146 57.869 129.436 65.8721C132.038 74.9515 130.532 85.2245 125.268 94.069C114.975 111.386 93.412 118.685 77.1904 110.369C69.9113 106.631 64.6281 100.174 62.3386 92.1905C59.7166 83.1112 61.2428 72.8186 66.5065 63.9937C73.9031 51.5291 87.1503 44.2499 100.045 44.2499Z" fill="#22273F" fill-opacity="0.4"/>
<path d="M109.222 56.578C97.5993 50.6099 82.1996 55.8149 74.8226 68.2207C67.4457 80.6266 70.8896 95.5175 82.5323 101.486C94.1554 107.454 109.575 102.249 116.952 89.8429C124.309 77.4371 120.865 62.5461 109.222 56.578Z" fill="#E9EAEF"/>
<path d="M103.861 65.6011C96.9145 62.0397 87.6982 65.151 83.2759 72.5671C78.8732 79.9832 80.9278 88.8865 87.8938 92.4674C94.8599 96.0482 104.076 92.9174 108.479 85.5013C112.882 78.0852 110.827 69.1624 103.861 65.6011Z" fill="white"/>
<path d="M94.1165 94.501C99.8302 94.501 105.701 91.2919 108.968 85.7934C111.297 81.8799 111.962 77.3011 110.808 73.2702C109.771 69.6893 107.403 66.7933 104.135 65.1105C96.9342 61.4122 87.3657 64.6409 82.8064 72.2918C80.4779 76.2053 79.8126 80.7841 80.9671 84.815C82.0042 88.3959 84.3718 91.2919 87.6396 92.9747C89.6551 94.0118 91.8858 94.501 94.1165 94.501ZM97.6191 64.6996C99.6933 64.6996 101.728 65.1496 103.587 66.1084C106.581 67.6347 108.753 70.2959 109.692 73.5833C110.768 77.3207 110.142 81.5668 107.97 85.2064C103.724 92.3486 94.8209 95.3815 88.1484 91.9572C85.1545 90.4309 83.0021 87.7698 82.0433 84.502C80.9671 80.7646 81.5932 76.5184 83.7652 72.8592C86.8374 67.713 92.3163 64.6996 97.6191 64.6996Z" fill="#22273F" fill-opacity="0.4"/>
<path d="M99.3408 73.1885C96.3274 71.6427 92.316 72.9929 90.3984 76.2215C88.4808 79.4502 89.3809 83.3245 92.3943 84.8704C95.4273 86.4162 99.4191 85.0661 101.337 81.8374C103.274 78.6087 102.374 74.7344 99.3408 73.1885Z" fill="#019F53"/>
<path d="M95.8776 80.9385C96.3667 80.9385 96.8559 80.7624 97.2277 80.3907C97.9713 79.6471 97.9713 78.4339 97.2277 77.6903L57.5251 37.8116C56.7815 37.068 55.5683 37.068 54.8247 37.8116C54.0812 38.5552 54.0812 39.7683 54.8247 40.5119L94.5274 80.3907C94.8992 80.7429 95.3884 80.9385 95.8776 80.9385Z" fill="#22273F"/>
<path d="M49.2284 42.8222L59.1492 52.8016C59.5992 53.2517 60.2058 53.5061 60.8319 53.5061L69.3047 53.5256C69.9309 53.5256 70.4396 53.0169 70.4396 52.3907L70.4592 43.918C70.4592 43.2722 70.2048 42.6656 69.7548 42.2156L59.8144 32.2361C59.3057 31.7273 58.4643 32.0796 58.4643 32.8036L58.4447 41.4916L49.7567 41.472C49.0914 41.472 48.7392 42.333 49.2284 42.8222Z" fill="#D3D3D3"/>
<path d="M67.8371 51.4312C67.9936 51.4312 68.1306 51.3725 68.248 51.2551C68.4632 51.0399 68.4632 50.6681 68.248 50.4528L60.7145 42.8802C60.4992 42.6649 60.1274 42.6649 59.9122 42.8802C59.6969 43.0954 59.6969 43.4672 59.9122 43.6825L67.4457 51.2551C67.5435 51.3725 67.6805 51.4312 67.8371 51.4312Z" fill="#22273F"/>
<path d="M95.0361 35.7373C95.0557 35.7373 95.0557 35.7373 95.0753 35.7373C95.3884 35.7177 95.6232 35.4438 95.6036 35.1307L94.9579 25.8361C94.9383 25.523 94.6448 25.2882 94.3513 25.3078C94.0382 25.3273 93.8034 25.6013 93.823 25.9144L94.4687 35.209C94.4883 35.5025 94.7426 35.7373 95.0361 35.7373Z" fill="#22273F"/>
<path d="M103.391 38.5585C103.548 38.5585 103.704 38.4998 103.822 38.3629L108.988 32.4534C109.203 32.2186 109.164 31.8468 108.929 31.6512C108.694 31.4359 108.322 31.4751 108.127 31.7099L102.961 37.6193C102.746 37.8541 102.785 38.2259 103.02 38.4216C103.117 38.4998 103.254 38.5585 103.391 38.5585Z" fill="#22273F"/>
<path d="M87.1502 39.6704C87.3068 39.6704 87.4634 39.6117 87.5808 39.4748C87.796 39.2399 87.7569 38.8682 87.5221 38.6725L81.6127 33.5066C81.3778 33.2914 81.006 33.3305 80.8104 33.5653C80.5951 33.8002 80.6343 34.1719 80.8691 34.3676L86.7785 39.5335C86.8763 39.6117 87.0133 39.6704 87.1502 39.6704Z" fill="#22273F"/>
<path d="M56.0806 220.822V235.299C66.1376 237.116 74.0676 245.046 75.9056 255.103H90.3613C88.3375 237.116 74.047 222.867 56.0806 220.822Z" fill="#E9EAEF"/>
<path d="M53.0806 217.822V232.299C63.1376 234.116 71.0676 242.046 72.9056 252.103H87.3613C85.3375 234.116 71.047 219.867 53.0806 217.822Z" fill="white"/>
<path d="M75.9055 264.002C73.8197 275.505 63.742 284.219 51.6405 284.219C46.4365 284.219 41.6041 282.609 37.6185 279.862L27.3962 290.084C34.0665 295.392 42.4715 298.551 51.6405 298.551C71.672 298.551 88.1722 283.455 90.3819 264.002H75.9055Z" fill="#E9EAEF"/>
<path d="M72.9055 261.002C70.8197 272.505 60.742 281.219 48.6405 281.219C43.4365 281.219 38.6041 279.609 34.6185 276.862L24.3962 287.084C31.0665 292.392 39.4715 295.551 48.6405 295.551C68.672 295.551 85.1722 280.455 87.3819 261.002H72.9055Z" fill="white"/>
<path d="M26.942 259.564C26.942 247.442 35.6774 237.364 47.18 235.299V220.822C27.7268 223.032 12.6309 239.532 12.6309 259.584C12.6309 268.733 15.7905 277.159 21.0978 283.808L31.32 273.586C28.5528 269.6 26.942 264.768 26.942 259.564Z" fill="#E9EAEF"/>
<path d="M23.942 256.564C23.942 244.442 32.6774 234.364 44.18 232.299V217.822C24.7268 220.032 9.63086 236.532 9.63086 256.584C9.63086 265.733 12.7905 274.159 18.0978 280.808L28.32 270.586C25.5528 266.6 23.942 261.768 23.942 256.564Z" fill="white"/>
<path d="M60.1832 252.364L59.5289 254.636H44L44.6419 252.364H60.1832ZM53.9 272.438L44.1975 260.523L44.1728 258.858H48.4192C49.703 258.858 50.7975 258.664 51.7027 258.277C52.608 257.881 53.2992 257.296 53.7766 256.521C54.2621 255.747 54.5049 254.787 54.5049 253.642C54.5049 251.955 53.9987 250.63 52.9865 249.666C51.9825 248.694 50.5424 248.207 48.6661 248.207H44L44.6419 246H48.6661C50.4766 246 51.9908 246.327 53.2087 246.981C54.4349 247.635 55.3566 248.539 55.9738 249.692C56.5992 250.837 56.912 252.153 56.912 253.642C56.912 255.036 56.6116 256.293 56.0108 257.412C55.4183 258.522 54.5007 259.404 53.2581 260.058C52.0237 260.704 50.4478 261.026 48.5303 261.026H47.6415L56.7762 272.245V272.438H53.9ZM60.2696 246L59.6277 248.272L46.5429 248.207L47.1354 246H60.2696Z" fill="#E9EAEF"/>
<path d="M58.1832 251.364L57.5289 253.636H42L42.6419 251.364H58.1832ZM51.9 271.438L42.1975 259.523L42.1728 257.858H46.4192C47.703 257.858 48.7975 257.664 49.7027 257.277C50.608 256.881 51.2992 256.296 51.7766 255.521C52.2621 254.747 52.5049 253.787 52.5049 252.642C52.5049 250.955 51.9987 249.63 50.9865 248.666C49.9825 247.694 48.5424 247.207 46.6661 247.207H42L42.6419 245H46.6661C48.4766 245 49.9908 245.327 51.2087 245.981C52.4349 246.635 53.3566 247.539 53.9738 248.692C54.5992 249.837 54.912 251.153 54.912 252.642C54.912 254.036 54.6116 255.293 54.0108 256.412C53.4183 257.522 52.5007 258.404 51.2581 259.058C50.0237 259.704 48.4478 260.026 46.5303 260.026H45.6415L54.7762 271.245V271.438H51.9ZM58.2696 245L57.6277 247.272L44.5429 247.207L45.1354 245H58.2696Z" fill="#019F53"/>
<path d="M378.892 73.9225L363.463 25.5653C361.43 19.1868 366.354 12.7484 373.031 13.0076L460.44 16.2566C466.54 16.5158 470.865 22.2963 469.39 28.2164L459.643 67.225C458.666 71.1319 455.377 74.0022 451.37 74.4606L389.138 80.58C384.573 81.0983 380.287 78.3077 378.892 73.9225Z" fill="#E9EAEF"/>
<path d="M377.234 70.4001L362.444 24.0451C360.495 17.9306 365.215 11.7589 371.616 12.0073L455.406 15.1218C461.253 15.3702 465.399 20.9114 463.985 26.5864L454.641 63.98C453.705 67.725 450.552 70.4765 446.711 70.916L387.056 76.7821C382.68 77.2789 378.572 74.6038 377.234 70.4001Z" fill="white"/>
<path d="M393.224 77.7518V101.671L412.819 76.6953" fill="#E9EAEF"/>
<path d="M392.973 74.0708V96.9999L411.756 73.0581" fill="white"/>
<path d="M442.365 38H389.635C389.284 38 389 37.5517 389 37C389 36.4483 389.284 36 389.635 36H442.365C442.716 36 443 36.4483 443 37C443 37.5172 442.716 38 442.365 38Z" fill="#019F53"/>
<path d="M442.424 53H394.576C394.258 53 394 52.5517 394 52C394 51.4483 394.258 51 394.576 51H442.424C442.742 51 443 51.4483 443 52C443 52.5172 442.742 53 442.424 53Z" fill="#019F53"/>
</g>
<defs>
<clipPath id="clip0_1_1648">
<rect width="544" height="480" fill="white"/>
</clipPath>
</defs>
</svg>
