<svg width="16" height="16" viewBox="0 0 16 16" fill="none" xmlns="http://www.w3.org/2000/svg">
<path fill-rule="evenodd" clip-rule="evenodd" d="M2.16911 3.68233C2.06292 3.57615 1.93686 3.49192 1.79813 3.43446C1.65939 3.37699 1.5107 3.34741 1.36053 3.34741C1.05726 3.34741 0.766409 3.46789 0.551962 3.68233C0.337516 3.89678 0.217041 4.18763 0.217041 4.4909C0.217041 4.79418 0.337516 5.08503 0.551962 5.29948L4.36111 9.10748L4.36911 9.11548C4.68033 9.4203 5.09861 9.59102 5.53425 9.59102C5.96988 9.59102 6.38817 9.4203 6.69939 9.11548L6.70739 9.10748L8.65139 7.16348L11.3337 10L10.1451 11.1886C10.0254 11.3085 9.94387 11.4612 9.91086 11.6273C9.87785 11.7935 9.89482 11.9657 9.95963 12.1222C10.0244 12.2788 10.1342 12.4126 10.275 12.5068C10.4158 12.601 10.5814 12.6513 10.7508 12.6515H14.9257C15.153 12.6515 15.371 12.5612 15.5318 12.4004C15.6925 12.2397 15.7828 12.0217 15.7828 11.7943V7.6229C15.7827 7.45349 15.7323 7.28791 15.6381 7.1471C15.5439 7.00628 15.4101 6.89653 15.2536 6.83172C15.0971 6.76691 14.9248 6.74993 14.7587 6.78294C14.5925 6.81596 14.4398 6.89747 14.32 7.01719L12.9508 8.38519L9.86053 5.11662L9.82968 5.08462C9.5184 4.77945 9.09987 4.60851 8.66396 4.60851C8.22805 4.60851 7.80952 4.77945 7.49825 5.08462L7.49139 5.09262L5.53368 7.04919L2.16911 3.68233Z" fill="#019F53"/>
</svg>
