<svg width="293" height="233" viewBox="0 0 293 233" fill="none" xmlns="http://www.w3.org/2000/svg">
<rect width="293" height="118.018" rx="11.1786" fill="#F1F2F2"/>
<path fill-rule="evenodd" clip-rule="evenodd" d="M137.683 45.3284C143.551 44.8189 149.452 44.8189 155.319 45.3284L158.133 45.5744C159.441 45.6889 160.672 46.24 161.629 47.139C162.586 48.0381 163.213 49.2328 163.408 50.531C164.254 56.1516 164.254 61.8671 163.408 67.4877C163.333 67.9809 163.201 68.4492 163.013 68.8927C162.89 69.1853 162.51 69.23 162.294 68.9952L154.056 59.9317C153.874 59.7314 153.637 59.5882 153.375 59.5198C153.113 59.4513 152.837 59.4604 152.58 59.546L147.864 61.1187L141.024 53.423C140.897 53.2806 140.743 53.1656 140.57 53.085C140.398 53.0045 140.21 52.96 140.02 52.9544C139.83 52.9488 139.64 52.9822 139.463 53.0526C139.286 53.1229 139.125 53.2286 138.991 53.3633L129.834 62.52C129.772 62.5839 129.692 62.6283 129.605 62.6477C129.518 62.6671 129.427 62.6607 129.344 62.6293C129.26 62.5978 129.188 62.5427 129.135 62.4706C129.083 62.3986 129.052 62.3128 129.048 62.2237C128.827 58.3172 129.01 54.3983 129.592 50.5291C129.788 49.2309 130.414 48.0362 131.371 47.1372C132.328 46.2382 133.559 45.6871 134.867 45.5725L137.683 45.3284ZM150.227 53.4192C150.227 52.6779 150.521 51.967 151.046 51.4428C151.57 50.9186 152.281 50.6242 153.022 50.6242C153.763 50.6242 154.474 50.9186 154.998 51.4428C155.523 51.967 155.817 52.6779 155.817 53.4192C155.817 54.1605 155.523 54.8715 154.998 55.3956C154.474 55.9198 153.763 56.2143 153.022 56.2143C152.281 56.2143 151.57 55.9198 151.046 55.3956C150.521 54.8715 150.227 54.1605 150.227 53.4192Z" fill="#1D2220" fill-opacity="0.12"/>
<path d="M129.657 66.6483C129.607 66.6992 129.569 66.7609 129.546 66.8288C129.524 66.8966 129.517 66.9688 129.527 67.0396L129.592 67.4869C129.788 68.7851 130.414 69.9798 131.371 70.8788C132.328 71.7778 133.559 72.3289 134.867 72.4434L137.681 72.6875C143.55 73.1981 149.45 73.1981 155.319 72.6875L158.133 72.4434C158.905 72.3782 159.656 72.1583 160.341 71.7969C160.597 71.6646 160.639 71.3273 160.446 71.1149L152.806 62.711C152.745 62.6436 152.666 62.5953 152.578 62.5721C152.491 62.5489 152.398 62.5519 152.312 62.5806L147.873 64.0601C147.614 64.1468 147.335 64.1553 147.07 64.0848C146.806 64.0142 146.568 63.8676 146.386 63.6632L140.247 56.7557C140.204 56.7082 140.153 56.6699 140.095 56.6431C140.038 56.6163 139.975 56.6015 139.912 56.5998C139.848 56.5981 139.785 56.6093 139.726 56.6329C139.667 56.6565 139.613 56.692 139.568 56.737L129.657 66.6483Z" fill="#1D2220" fill-opacity="0.12"/>
<rect x="6.74675" y="130.547" width="279.506" height="10.0237" rx="5.01108" fill="#1D2220" fill-opacity="0.06"/>
<rect x="77.2105" y="148.089" width="129.184" height="10.0237" rx="5.01108" fill="#1D2220" fill-opacity="0.06"/>
<rect x="6.74675" y="148.089" width="65.7662" height="10.0237" rx="5.01108" fill="#1D2220" fill-opacity="0.06"/>
<rect x="6.74675" y="165.631" width="256.018" height="10.0237" rx="5.01108" fill="#1D2220" fill-opacity="0.06"/>
<rect x="6.74675" y="183.17" width="164.416" height="10.0237" rx="5.01108" fill="#1D2220" fill-opacity="0.06"/>
<rect x="256.439" y="222.901" width="29.814" height="9.31688" rx="4.65774" fill="#1D2220" fill-opacity="0.06"/>
<rect x="239.669" y="222.901" width="11.1803" height="9.31688" rx="4.65774" fill="#1D2220" fill-opacity="0.06"/>
</svg>
