<svg width="192" height="96" viewBox="0 0 192 96" fill="none" xmlns="http://www.w3.org/2000/svg">
<path opacity="0.8" d="M0 85C0 82.7909 1.79086 81 4 81H20C22.2091 81 24 82.7909 24 85V96H0V85Z" fill="#DBDFE7"/>
<path opacity="0.8" d="M28 78C28 75.7909 29.7909 74 32 74H48C50.2091 74 52 75.7909 52 78V96H28V78Z" fill="#DBDFE7"/>
<path opacity="0.8" d="M56 68C56 65.7909 57.7909 64 60 64H76C78.2091 64 80 65.7909 80 68V96H56V68Z" fill="#DBDFE7"/>
<path opacity="0.8" d="M84 56C84 53.7909 85.7909 52 88 52H104C106.209 52 108 53.7909 108 56V96H84V56Z" fill="#DBDFE7"/>
<path opacity="0.8" d="M112 45C112 42.7909 113.791 41 116 41H132C134.209 41 136 42.7909 136 45V96H112V45Z" fill="#DBDFE7"/>
<path opacity="0.8" d="M140 25C140 22.7909 141.791 21 144 21H160C162.209 21 164 22.7909 164 25V96H140V25Z" fill="#DBDFE7"/>
<path opacity="0.8" d="M168 4C168 1.79086 169.791 0 172 0H188C190.209 0 192 1.79086 192 4V96H168V4Z" fill="#DBDFE7"/>
</svg>
