<svg width="32" height="30" viewBox="0 0 32 30" fill="none" xmlns="http://www.w3.org/2000/svg">
<path d="M19.2 30V19.0435C19.2 14 20.2667 9.82609 22.4 6.52174C24.6187 3.21739 27.8187 1.04348 32 0V4.56521C29.44 5.26087 27.6053 6.56521 26.496 8.47826C25.3867 10.3043 24.7467 12.6957 24.576 15.6522H29.44V30H19.2ZM0 30V19.0435C0 14 1.06667 9.82609 3.2 6.52174C5.41867 3.21739 8.61867 1.04348 12.8 0V4.56521C10.24 5.26087 8.40533 6.56521 7.296 8.47826C6.18667 10.3043 5.54667 12.6957 5.376 15.6522H10.24V30H0Z" fill="#019F53" fill-opacity="0.1"/>
</svg>
