<svg width="40" height="40" viewBox="0 0 40 40" fill="none" xmlns="http://www.w3.org/2000/svg">
<rect width="40" height="40" rx="8" fill="#F2FAF6"/>
<g clip-path="url(#clip0_1_1066)">
<path d="M14.8334 19L14.1667 21.0667H15.5001L14.8334 19Z" fill="#019F53"/>
<path d="M27.9677 11H17.129V14.3505H19.8387V15.6907H11.0323C9.88065 15.6907 9 16.5619 9 17.701V25.0722C9 26.2113 9.88065 27.0825 11.0323 27.0825H11.7097V30.5L15.9774 27.0825H20.5161V22.3918H27.9677C29.1194 22.3918 30 21.5206 30 20.3814V13.0103C30 11.8711 29.1194 11 27.9677 11ZM16.3161 24.3351L15.9774 23.2629H13.8774L13.471 24.3351H11.8452L14.0806 18.3711H15.7065L17.9419 24.3351H16.3161ZM26.6129 19.0412V20.3814C25.7323 20.3814 24.7839 20.1134 23.971 19.7113C23.1581 20.1134 22.2097 20.3144 21.2613 20.3814L21.1935 19.0412C21.6677 19.0412 22.1419 18.9742 22.6161 18.8402C22.0065 18.2371 21.6 17.5 21.3968 16.6959H22.8194C23.0226 17.299 23.429 17.768 23.9032 18.1701C24.6484 17.567 25.1226 16.6959 25.1903 15.6907H21.1258V14.3505H23.1581V13.0103H24.5129V14.3505H26.7484L26.8161 15.0206C26.8839 16.4278 26.3419 17.8351 25.3258 18.8402C25.8 18.9742 26.2065 19.0412 26.6129 19.0412Z" fill="#019F53"/>
</g>
<defs>
<clipPath id="clip0_1_1066">
<rect width="24" height="24" fill="white" transform="translate(7.5 8)"/>
</clipPath>
</defs>
</svg>
