<svg width="16" height="16" viewBox="0 0 16 16" fill="none" xmlns="http://www.w3.org/2000/svg">
<path d="M12.2189 14.9997C11.6089 14.9997 10.752 14.7791 9.46885 14.0622C7.90854 13.1872 6.70167 12.3794 5.14979 10.8316C3.65354 9.33627 2.92542 8.36815 1.90636 6.51377C0.755105 4.42002 0.951355 3.32252 1.17073 2.85346C1.43198 2.29283 1.81761 1.95752 2.31604 1.62471C2.59915 1.43922 2.89875 1.28022 3.21104 1.14971C3.24229 1.13627 3.27136 1.12346 3.29729 1.1119C3.45198 1.04221 3.68636 0.936898 3.98323 1.0494C4.18135 1.12377 4.35823 1.27596 4.63511 1.5494C5.20292 2.1094 5.97885 3.35659 6.2651 3.96908C6.45729 4.3819 6.58448 4.6544 6.58479 4.96002C6.58479 5.31783 6.40479 5.59377 6.18636 5.89158C6.14542 5.94752 6.10479 6.00096 6.06542 6.05283C5.8276 6.36533 5.77542 6.45565 5.80979 6.6169C5.87948 6.94096 6.39917 7.90565 7.25323 8.75784C8.10729 9.61002 9.04417 10.0969 9.36948 10.1663C9.53761 10.2022 9.62979 10.1478 9.95229 9.90158C9.99854 9.86627 10.046 9.82971 10.0957 9.79315C10.4289 9.54534 10.692 9.37002 11.0414 9.37002H11.0432C11.3473 9.37002 11.6076 9.5019 12.0389 9.7194C12.6014 10.0031 13.886 10.7691 14.4495 11.3375C14.7235 11.6138 14.8764 11.79 14.951 11.9878C15.0635 12.2856 14.9576 12.5191 14.8885 12.6753C14.877 12.7013 14.8642 12.7297 14.8507 12.7613C14.7192 13.073 14.5592 13.372 14.3729 13.6544C14.0407 14.1513 13.7042 14.536 13.1423 14.7975C12.8538 14.934 12.538 15.0032 12.2189 14.9997Z" fill="#1D2220"/>
</svg>
