<svg width="20" height="20" viewBox="0 0 20 20" fill="none" xmlns="http://www.w3.org/2000/svg">
<path d="M13.9757 0.332889L14.3851 1.59282C14.5122 1.97617 14.7273 2.32445 15.0131 2.60982C15.2989 2.89519 15.6476 3.10972 16.0312 3.23625L17.2913 3.64564L17.316 3.6527C17.4132 3.68691 17.4974 3.75043 17.5569 3.83451C17.6165 3.91858 17.6485 4.01906 17.6485 4.12208C17.6485 4.2251 17.6165 4.32559 17.5569 4.40966C17.4974 4.49374 17.4132 4.55726 17.316 4.59147L16.0559 5.00086C15.6723 5.12739 15.3236 5.34192 15.0378 5.62729C14.752 5.91266 14.5369 6.26094 14.4098 6.64429L14.0004 7.90304C13.9662 8.00022 13.9026 8.08438 13.8185 8.14392C13.7344 8.20346 13.6339 8.23543 13.5309 8.23543C13.4279 8.23543 13.3274 8.20346 13.2433 8.14392C13.1592 8.08438 13.0957 8.00022 13.0614 7.90304L12.6508 6.64429C12.5247 6.26009 12.3103 5.91077 12.0249 5.62435C11.7392 5.33738 11.3902 5.1214 11.0059 4.9938L9.74578 4.58441C9.64859 4.5502 9.56441 4.48668 9.50487 4.4026C9.44532 4.31853 9.41334 4.21805 9.41334 4.11503C9.41334 4.01201 9.44532 3.91152 9.50487 3.82745C9.56441 3.74337 9.64859 3.67985 9.74578 3.64564L11.0059 3.23625C11.3847 3.1063 11.7282 2.89024 12.0093 2.60507C12.2905 2.3199 12.5016 1.97339 12.6261 1.59282L13.0356 0.334066C13.0695 0.236482 13.133 0.151888 13.2173 0.0920257C13.3015 0.0321631 13.4023 0 13.5056 0C13.609 0 13.7097 0.0321631 13.794 0.0920257C13.8782 0.151888 13.9417 0.235305 13.9757 0.332889ZM19.7469 9.66412L18.8456 9.37237C18.5721 9.28096 18.3237 9.12718 18.1199 8.92322C17.9161 8.71925 17.7625 8.47067 17.6714 8.19715L17.3772 7.29837C17.3529 7.22889 17.3075 7.16868 17.2474 7.12609C17.1874 7.08349 17.1155 7.06062 17.0419 7.06062C16.9682 7.06062 16.8964 7.08349 16.8363 7.12609C16.7763 7.16868 16.7309 7.22889 16.7066 7.29837L16.4148 8.19715C16.3253 8.46892 16.1742 8.71637 15.9734 8.92021C15.7726 9.12405 15.5274 9.27879 15.257 9.37237L14.3569 9.66412C14.2879 9.68901 14.2283 9.73456 14.1862 9.79456C14.144 9.85455 14.1214 9.92608 14.1214 9.99939C14.1214 10.0727 14.144 10.1442 14.1862 10.2042C14.2283 10.2642 14.2879 10.3098 14.3569 10.3347L15.257 10.6276C15.5313 10.7191 15.7805 10.8732 15.9847 11.0778C16.189 11.2825 16.3427 11.5319 16.4336 11.8063L16.7254 12.7051C16.7497 12.7746 16.7951 12.8348 16.8552 12.8774C16.9152 12.92 16.9871 12.9429 17.0607 12.9429C17.1344 12.9429 17.2062 12.92 17.2663 12.8774C17.3263 12.8348 17.3717 12.7746 17.396 12.7051L17.689 11.8063C17.7803 11.5327 17.934 11.284 18.138 11.0801C18.342 10.8761 18.5907 10.7224 18.8644 10.6311L19.7645 10.3394C19.8335 10.3145 19.8931 10.2689 19.9353 10.2089C19.9774 10.1489 20 10.0774 20 10.0041C20 9.93079 19.9774 9.85926 19.9353 9.79926C19.8931 9.73927 19.8335 9.69372 19.7645 9.66883L19.7469 9.66412ZM4.1181 11.7652C3.96208 11.7652 3.81244 11.7032 3.70211 11.5929C3.59178 11.4826 3.5298 11.333 3.5298 11.177C3.5298 11.021 3.59178 10.8714 3.70211 10.7611C3.81244 10.6507 3.96208 10.5888 4.1181 10.5888C4.27413 10.5888 4.42377 10.6507 4.53409 10.7611C4.64442 10.8714 4.7064 11.021 4.7064 11.177C4.7064 11.333 4.64442 11.4826 4.53409 11.5929C4.42377 11.7032 4.27413 11.7652 4.1181 11.7652ZM4.7064 15.8826C4.7064 16.0386 4.64442 16.1882 4.53409 16.2985C4.42377 16.4088 4.27413 16.4708 4.1181 16.4708C3.96208 16.4708 3.81244 16.4088 3.70211 16.2985C3.59178 16.1882 3.5298 16.0386 3.5298 15.8826C3.5298 15.7266 3.59178 15.577 3.70211 15.4667C3.81244 15.3564 3.96208 15.2944 4.1181 15.2944C4.27413 15.2944 4.42377 15.3564 4.53409 15.4667C4.64442 15.577 4.7064 15.7266 4.7064 15.8826ZM3.5298 3.53035H8.35975C8.28523 3.71791 8.24344 3.91687 8.2362 4.11856C8.24031 4.47197 8.35643 4.81498 8.56785 5.09825C8.77928 5.38151 9.07511 5.59042 9.4128 5.69494L9.98816 5.88316H2.9415C2.78547 5.88316 2.63584 5.94513 2.52551 6.05544C2.41518 6.16575 2.3532 6.31536 2.3532 6.47136C2.3532 6.62736 2.41518 6.77697 2.52551 6.88728C2.63584 6.99759 2.78547 7.05956 2.9415 7.05956H11.5695L11.9425 8.23597C12.0484 8.53948 12.2366 8.8077 12.4837 9.01239C12.6406 9.12846 12.8132 9.21081 13.0014 9.25944C12.9212 9.49788 12.9009 9.75245 12.9426 10.0006C12.9422 10.2024 12.9818 10.4023 13.0591 10.5888H7.6479C7.49188 10.5888 7.34224 10.6507 7.23191 10.7611C7.12158 10.8714 7.0596 11.021 7.0596 11.177C7.0596 11.333 7.12158 11.4826 7.23191 11.5929C7.34224 11.7032 7.49188 11.7652 7.6479 11.7652H13.5309C13.6342 11.7652 13.7356 11.738 13.825 11.6864C13.9145 11.6347 13.9887 11.5605 14.0404 11.4711L14.8958 11.7416C14.9915 11.7809 15.0777 11.8358 15.1546 11.9063C15.2293 11.9829 15.2856 12.0754 15.3193 12.1769L15.6017 13.071C15.6749 13.2776 15.79 13.4668 15.9398 13.6267C16.0897 13.7867 16.271 13.9139 16.4724 14.0003V16.4708C16.4724 17.4068 16.1005 18.3045 15.4386 18.9663C14.7766 19.6282 13.8788 20 12.9426 20H3.5298C2.59364 20 1.69582 19.6282 1.03386 18.9663C0.371889 18.3045 0 17.4068 0 16.4708V7.05956C0 6.12356 0.371889 5.22589 1.03386 4.56403C1.69582 3.90218 2.59364 3.53035 3.5298 3.53035ZM4.1181 12.9416C4.58618 12.9416 5.03509 12.7557 5.36608 12.4247C5.69706 12.0938 5.883 11.645 5.883 11.177C5.883 10.709 5.69706 10.2601 5.36608 9.92921C5.03509 9.59828 4.58618 9.41237 4.1181 9.41237C3.65002 9.41237 3.20111 9.59828 2.87013 9.92921C2.53915 10.2601 2.3532 10.709 2.3532 11.177C2.3532 11.645 2.53915 12.0938 2.87013 12.4247C3.20111 12.7557 3.65002 12.9416 4.1181 12.9416ZM5.883 15.8826C5.883 15.4146 5.69706 14.9657 5.36608 14.6348C5.03509 14.3039 4.58618 14.118 4.1181 14.118C3.65002 14.118 3.20111 14.3039 2.87013 14.6348C2.53915 14.9657 2.3532 15.4146 2.3532 15.8826C2.3532 16.3506 2.53915 16.7994 2.87013 17.1304C3.20111 17.4613 3.65002 17.6472 4.1181 17.6472C4.58618 17.6472 5.03509 17.4613 5.36608 17.1304C5.69706 16.7994 5.883 16.3506 5.883 15.8826ZM7.6479 15.2944C7.49188 15.2944 7.34224 15.3564 7.23191 15.4667C7.12158 15.577 7.0596 15.7266 7.0596 15.8826C7.0596 16.0386 7.12158 16.1882 7.23191 16.2985C7.34224 16.4088 7.49188 16.4708 7.6479 16.4708H13.5309C13.6869 16.4708 13.8366 16.4088 13.9469 16.2985C14.0572 16.1882 14.1192 16.0386 14.1192 15.8826C14.1192 15.7266 14.0572 15.577 13.9469 15.4667C13.8366 15.3564 13.6869 15.2944 13.5309 15.2944H7.6479Z" fill="#019F53"/>
</svg>
